<?xml version="1.0" standalone="no"?>
<!DOCTYPE svg PUBLIC "-//W3C//DTD SVG 1.1//EN" "http://www.w3.org/Graphics/SVG/1.1/DTD/svg11.dtd" >
<svg xmlns="http://www.w3.org/2000/svg">
<metadata></metadata>
<defs>
<font id="bad_scriptregular" horiz-adv-x="870" >
<font-face units-per-em="2048" ascent="1638" descent="-410" />
<missing-glyph horiz-adv-x="850" />
<glyph horiz-adv-x="0" />
<glyph horiz-adv-x="0" />
<glyph unicode="&#xd;" horiz-adv-x="0" />
<glyph unicode=" "  horiz-adv-x="850" />
<glyph unicode="&#x09;" horiz-adv-x="850" />
<glyph unicode="&#xa0;" horiz-adv-x="850" />
<glyph unicode="!" horiz-adv-x="670" d="M109 12.5q0 44.5 36.5 74.5t71 30t52.5 -23t18 -58.5t-28.5 -85.5t-74.5 -50q-17 0 -27 10.5t-10 23t3 19.5q-41 15 -41 59.5zM182 369q186 792 260 1429q13 103 32 203t24 203q6 20 23 34.5t36 14.5q26 0 35 -35q-3 -82 -26 -218t-47 -344.5t-92 -568.5t-153 -718 q-19 -41 -57 -41q-31 0 -35 41z" />
<glyph unicode="&#x22;" horiz-adv-x="532" d="M225 1678q0 104 88 300q21 41 58 41t37 -30v-10t-30.5 -73.5t-58.5 -215.5q-5 -23 -24 -36.5t-35 -13.5q-35 0 -35 38zM418 1690q0 124 104 297q22 24 55 24t33 -35v-7q0 -4 -19.5 -36t-36.5 -87t-29.5 -98t-26.5 -69t-47 -26t-33 37z" />
<glyph unicode="#" horiz-adv-x="1411" d="M0 713q0 17 16.5 37t50 22t76 8t84.5 13l84 14t84 12q20 76 48.5 180t33.5 138q-60 -5 -124.5 -16.5t-112.5 -19t-93 -26.5q-19 -16 -35 -16q-34 0 -38 41q29 90 224 107q47 4 78 9.5t59.5 8.5t56.5 6q6 48 11.5 103.5t17.5 151t36.5 167t67.5 71.5t43 -59 q-3 -24 -25 -43q-17 -72 -29 -200t-22 -185l98 2q86 0 176 -4q61 268 129 420q24 33 56 33t32 -50q-72 -165 -127 -407q158 -10 286 -10t179 4q35 -9 35 -35q0 -66 -135 -66t-385 13q-37 -197 -53 -297h14l363 -2q34 -9 34 -35q0 -19 -14.5 -36t-34.5 -24l-362 2h-17 q-68 -408 -123 -581q-19 -41 -57 -41q-31 0 -35 41q41 128 69 276t56 305q-78 -2 -156.5 -4t-156.5 -8q-32 -113 -101 -393q-18 -75 -20 -156q-3 -24 -22 -40.5t-34 -16.5q-38 0 -38 43q0 129 121 555q-82 -11 -162.5 -27.5t-163.5 -19.5q-43 4 -43 35zM489 829q79 5 304 11 q17 106 53 299q-88 4 -143 4h-81q-26 0 -51 -2q-12 -55 -37 -147z" />
<glyph unicode="$" horiz-adv-x="1147" d="M-14 373q0 139 49.5 239.5t169.5 206.5q20 17 38 17q40 0 40 -33q0 -17 -9 -31q-102 -94 -135 -156q-55 -108 -55 -228t79 -200t204 -108l325 1100q-123 295 -123 439t72 252.5t221 108.5q16 0 64 -6q22 63 32 125q8 22 26.5 35.5t33.5 13.5q33 0 33 -37q0 -61 -37 -165 q114 -64 164 -224q8 -13 8 -31.5t-17.5 -34.5t-35.5 -16q-31 0 -38 45t-35 95.5t-81 81.5q-24 -59 -60 -195t-128 -469q35 -84 72 -169q136 -312 136 -510t-99 -347q-127 -195 -400 -195q-28 0 -70 5l-24 -95q-23 -41 -56 -41t-37 41l29 107q-246 51 -328 240 q-28 65 -28 139zM457 68h37q197 0 310 144q97 122 97 312q0 91 -40 217t-116 308q-71 -248 -144 -491t-144 -490zM668 1674q0 -143 67 -339q67 235 96 351.5t64 203.5q-22 4 -56 4q-73 0 -122 -67t-49 -153z" />
<glyph unicode="%" horiz-adv-x="1028" d="M94 1678q0 114 61 176.5t149.5 62.5t144 -55.5t55.5 -144t-54.5 -143t-145 -54.5t-150.5 47t-60 111zM115 -76q128 428 383 1112q68 180 90 244q172 496 256 651q19 17 37 17q41 0 41 -33q0 -17 -29 -59t-78.5 -173t-103.5 -300.5t-125 -354.5q-218 -575 -379 -1104 q-21 -41 -57 -41q-31 0 -35 41zM188 1709.5q0 -50.5 27.5 -70t77.5 -19.5q115 0 115 92q0 115 -109 115q-51 0 -81 -33.5t-30 -84zM549 200q0 88 65 162t156.5 74t148 -71.5t56.5 -148.5q0 -128 -59.5 -176t-151.5 -48q-45 0 -68.5 5t-23.5 26.5t16 40.5t41 22l70 -4 q34 0 61 23.5t27 77t-38 105.5t-87.5 52t-74.5 -26q-44 -46 -44 -78q0 -59 41 -89q8 -13 8 -31.5t-17 -34t-49 -15.5t-54.5 46t-22.5 88z" />
<glyph unicode="&#x26;" horiz-adv-x="1563" d="M96 739q0 157 62.5 279t119.5 179q99 99 236 151q-166 140 -166 332q0 59 32.5 120t87.5 102q110 85 277 85q231 0 365 -119q47 -41 76 -99l2 -12q0 -36 -38 -54q-10 -5 -20 -5q-23 0 -36 33q-26 71 -115 116t-213.5 45t-226 -60t-101.5 -169q0 -139 114 -232 q41 -34 101 -55h19q98 0 145 -44q17 -16 17 -39t-19 -38.5t-45 -15.5q-124 24 -154 39q-174 -20 -298.5 -172.5t-124.5 -355.5q0 -290 162 -483t410 -193t435 150q122 97 172 240q25 72 25 144q0 134 -51.5 214.5t-161.5 135.5q-165 -72 -229 -236q-21 -54 -21 -116t37 -110 q8 -11 8 -30.5t-16.5 -36.5t-38.5 -17q-40 0 -64 68q-20 51 -20 111q0 121 76.5 234.5t191.5 192.5q41 28 135.5 62t143.5 55q174 75 174 219l-19 166q6 20 23.5 34.5t32.5 14.5q55 0 55 -229q0 -34 -22 -85t-67 -99q-101 -104 -278 -157q169 -94 196 -265q9 -52 9 -126 q0 -160 -105.5 -308t-276 -236.5t-331.5 -88.5q-304 0 -493 219.5t-189 544.5z" />
<glyph unicode="'" horiz-adv-x="289" d="M225 1677q0 215 51 344q23 33 46.5 33t34 -9.5t10.5 -18.5v-14q0 -4 -5 -15t-10 -35.5t-9.5 -60.5t-9.5 -87t-11 -99t-24.5 -64.5t-33.5 -16.5q-39 0 -39 43z" />
<glyph unicode="(" horiz-adv-x="582" d="M106 317q0 600 280 1131q90 169 174 276t117 140q127 125 152 125q18 10 33 10q25 0 25 -23t-19 -45t-45.5 -44t-55 -45t-48.5 -46q-381 -436 -481 -1058q-31 -193 -31 -382q0 -384 125 -692q21 -53 64.5 -124.5t43.5 -85.5v-7q0 -25 -20 -46.5t-39 -21.5q-31 0 -79 87 q-196 353 -196 851z" />
<glyph unicode=")" horiz-adv-x="555" d="M-420 -515q0 30 93 109q27 23 76.5 64t104.5 95.5t138 170.5q244 341 368 786q80 285 80 491t-31 322t-66.5 219t-39.5 177q7 40 47 61q11 5 26 5t25 -23q7 -73 53.5 -199t56.5 -200q32 -236 32 -329q0 -190 -68.5 -456t-180 -513.5t-231.5 -385.5q-55 -62 -89.5 -101 t-60 -66.5t-46.5 -48t-49 -45.5t-68 -60t-102 -90q-22 -13 -39 -13q-29 0 -29 30z" />
<glyph unicode="*" horiz-adv-x="686" d="M131 1384.5q0 19.5 25 40.5q91 59 176 84q-15 20 -43.5 79.5t-48.5 84.5q-4 10 -4 27t15.5 34t36 17t39 -21.5t36.5 -53t35 -67t32 -63.5v-2q60 96 94 164q21 31 51 31q37 0 37 -35q0 -22 -34 -79.5t-54 -92.5q123 13 131 14q50 0 50 -30q0 -17 -14 -35.5t-36 -26.5 q-45 -6 -83.5 -8.5t-75.5 -5.5q45 -72 139 -170q8 -10 8 -30t-16.5 -37t-36 -17t-33.5 14q-90 99 -137 166l-86 -137q-17 -25 -47 -25q-37 0 -37 35q0 9 4 23l102 161q-83 -18 -153 -67q-24 -13 -38 -13t-24 11t-10 30.5z" />
<glyph unicode="+" horiz-adv-x="903" d="M90 627q0 14 6 20q13 22 34 35.5t33.5 13.5t16.5 -4q93 43 199 49h16q3 27 11 58l14 61q4 19 4 53v45q0 53 40 78q12 8 28 8q38 0 38 -49.5t-4.5 -81t-11 -60t-13.5 -55t-12 -53.5h15q47 0 108.5 -10t95.5 -10t68 4q29 -8 29 -33.5t-41 -50.5q-12 -7 -23 -10l-268 22 q-31 -168 -31 -258v-28q-15 -72 -67 -72q-35 0 -35 88t41 268q-11 0 -31 -4t-43.5 -8.5t-58.5 -11.5q-76 -35 -117 -35t-41 31z" />
<glyph unicode="," horiz-adv-x="330" d="M-78 -344q0 15 12 35q46 52 96.5 152t59.5 122q0 7 -7 10.5t-7 14.5q-18 -8 -35 -8q-41 0 -41 43q0 36 27.5 71t75.5 35q87 0 87 -111q0 -82 -67.5 -199.5t-128.5 -189.5q-18 -12 -35 -12q-37 0 -37 37z" />
<glyph unicode="-" d="M90 585q0 32 35 49t87 17t130.5 -10t169 -10t205.5 31h12q19 0 28 -9.5t9 -21.5q0 -96 -408 -96q-95 0 -125 14l-57 2l-39 -6q-4 0 -4 2h-6q-37 0 -37 38z" />
<glyph unicode="." horiz-adv-x="256" d="M-78 46q0 35 29.5 63t64 28t66.5 -24q35 -34 35 -67t-25 -56t-54 -23t-48 8h-8q-60 0 -60 71z" />
<glyph unicode="/" horiz-adv-x="815" d="M-236 -887q0 8 38 101.5t140 364.5t164 423l185 459q85 214 218 517.5t195 437.5q111 238 130 334q38 188 69 259t82 80h12q37 0 37 -32t-37 -56q-23 -45 -32.5 -99t-15 -86t-33 -117.5t-194.5 -457.5t-231.5 -526.5t-116 -282t-104.5 -262t-107 -272.5t-131 -336 t-175 -443q-16 -39 -54.5 -39t-38.5 33z" />
<glyph unicode="0" horiz-adv-x="932" d="M109 369q0 255 101 459q76 153 210 218q70 33 133.5 33t94 -14.5t58.5 -35.5t55 -45.5t58 -45.5q8 -13 8 -37.5t-32 -38.5q57 -66 57 -206.5t-60 -302t-169.5 -269t-246.5 -107.5t-208 127q-59 106 -59 265zM201 379q0 -126 27.5 -192.5t61.5 -99t92 -32.5 q113 0 199 103.5t128.5 243.5t42.5 226.5t-33 168.5q-4 10 -4 30t26 41q-16 12 -35 31q-85 82 -148 82q-122 0 -204.5 -96.5t-117.5 -238t-35 -267.5z" />
<glyph unicode="1" horiz-adv-x="733" d="M-102 16q0 56 24 56q136 0 194 5t91 7q31 298 54 402.5t52 201.5q-88 -133 -209 -248q-18 -12 -34 -12q-37 0 -37 37q0 15 12 35q105 107 134.5 146t57 76t55.5 92t54 104.5t51.5 83.5t51.5 34t26 -32v-10t-2 -11l-6 -20h2l-4 -7q-129 -487 -166 -868q90 4 169 4h86 q9 0 28.5 -1.5t40.5 -2.5q34 -9 34 -40.5t-37 -51.5q-12 -6 -24 -6l-141 10l-486 -8q-21 -12 -35 -12q-36 0 -36 36z" />
<glyph unicode="2" horiz-adv-x="1032" d="M-43 110q0 84 50.5 130.5t125 46.5t199.5 -51q5 -4 9 -5.5t9 -3.5q367 367 367 566q0 155 -205 155q-115 0 -206 -58t-91 -134q-8 -19 -25 -30t-31 -11q-36 0 -36 37q0 69 62 135.5t155 110.5t184 44q285 0 285 -241.5t-377 -618.5q129 -75 179 -87.5t87.5 -12.5t60.5 22 t36.5 55.5t20.5 72t15.5 72t21.5 55.5t40.5 22t36.5 -37q-12 -156 -50 -224.5t-82.5 -100t-95 -31.5t-88.5 12.5t-77.5 32t-80.5 43.5t-83 47q-11 -13 -21.5 -22.5t-41.5 -40.5q-78 -78 -193 -78q-65 0 -113 40q-47 40 -47 88zM47 132q0 -52 76 -52t164 84q-82 35 -132 35 t-79 -21t-29 -46z" />
<glyph unicode="3" horiz-adv-x="930" d="M-432 -400q0 205 80 205q26 0 35 -34q-4 -34 -9.5 -67.5t-5.5 -81.5q0 -103 79 -190.5t200.5 -133.5t257 -46t245 52.5t180.5 139.5q140 172 140 433q0 156 -105 290t-247 134h-12q-105 -61 -197 -74q-41 4 -41 35.5t59 65.5t127 49l66 41q85 50 188 161t103 193t-20 114 q-43 70 -150 70q-204 0 -363 -186q-22 -25 -41 -25q-41 0 -41 37q0 80 154.5 171t286 91t201 -71.5t69.5 -157t-51 -174.5q-57 -92 -168 -200q-36 -35 -76 -66q164 -35 260 -177.5t96 -332.5q0 -297 -160 -489q-182 -218 -542 -218q-191 0 -382 122q-130 83 -187 206 q-29 64 -29 114z" />
<glyph unicode="4" horiz-adv-x="1022" d="M37 2q0 19 12 37q88 104 160.5 183.5t173 190.5t198 241.5t216.5 338.5q23 33 55.5 33t32.5 -49q-31 -56 -54 -90q17 -9 17 -29l-4 -39q-12 -301 -99 -756q161 14 187 17q49 0 49 -31t-34.5 -54.5t-96.5 -23.5h-123q-79 -432 -94 -637q-2 -19 -5 -48q-13 -126 -89 -126 q-35 0 -35 37q0 13 8 22t9 26.5t1.5 42.5t44 257t76.5 426q-516 -6 -561 -6t-45 37zM172 57q56 -2 112 -2h118q168 0 255 4q63 400 103 715q-129 -196 -316 -405.5t-272 -311.5z" />
<glyph unicode="5" horiz-adv-x="1335" d="M-8 -319q0 104 57 104q21 0 35 -23v-28q0 -232 150 -357t376 -125q383 0 510 286q45 102 45 219q0 209 -135.5 341.5t-331.5 132.5q-132 0 -219.5 -30t-212.5 -111q-18 -12 -37 -12q-36 0 -36 37q0 13 4 20q159 223 213 342q106 236 106 494q7 23 27 37q20 24 44 24 t38.5 -14t29.5 -27q86 -43 344 -43q161 0 277 80q34 23 49 23q35 0 35 -37q0 -53 -132 -110q-88 -39 -142.5 -41.5t-84.5 -2.5q-292 0 -393 41q-17 -330 -215 -633q112 54 320.5 54t381.5 -150.5t173 -400t-155 -421.5q-178 -196 -501 -196q-238 0 -416 128 q-204 147 -204 399z" />
<glyph unicode="6" horiz-adv-x="1126" d="M96 461q0 150 53 432.5t136 522.5t215.5 405.5t296.5 165.5t251 -71q43 -36 93 -119.5t50 -113.5q0 -55 -58 -55q-32 0 -37 14q-62 161 -118 206.5t-152 45.5t-162.5 -46t-125.5 -124q-109 -148 -193 -399.5t-120 -511.5q127 188 312 248q62 20 128 20q132 0 214 -116 t82 -312q0 -273 -125 -462q-141 -211 -400 -211q-162 0 -251 132t-89 349zM201 494q0 -292 125 -391q46 -37 120 -37q144 0 240.5 88.5t139 222t42.5 252.5q0 198 -68.5 276t-184 78t-255.5 -135t-159 -352v-2z" />
<glyph unicode="7" horiz-adv-x="971" d="M43 968q0 38 35 50t112 12l629 -6q66 0 66 -89q0 -44 -39 -105q-165 -251 -348 -752h268q35 0 35 -37q0 -22 -19 -39.5t-45 -17.5q-160 16 -262 16h-6q-74 -196 -159.5 -457.5t-104.5 -306.5t-37.5 -67t-46.5 -27q-34 4 -43 29l-4 22q0 61 32 70q56 102 137.5 357.5 t123.5 377.5h-54q-121 0 -204 6q-14 -4 -23 -4q-35 0 -35 37q0 30 25 47l191 -1l130 -1q154 441 338 764q8 14 21 32.5t22 43.5l-518 8q-19 0 -70 -15.5t-73 -15.5q-74 0 -74 69z" />
<glyph unicode="8" horiz-adv-x="1018" d="M45 408q0 253 303 533q86 80 176 163q-72 79 -118 176q-84 178 -84 274q0 194 100 309t272 115q141 0 214 -148q55 -112 55 -208.5t-20.5 -155.5t-54.5 -110q-58 -88 -251 -264q38 -69 84 -148q180 -307 180 -503.5t-116 -339t-314 -142.5q-157 0 -291.5 121.5 t-134.5 327.5zM143 451q0 -173 86 -280.5t224.5 -107.5t243 106.5t104.5 258.5t-74 318q-38 84 -158 284q-74 -65 -150 -134q-276 -251 -276 -445zM410 1577q0 -85 59 -210.5t113 -182.5l10 -17l67 66q36 40 73.5 75.5t68.5 73.5q71 87 71 184q0 163 -66 250q-50 68 -124 68 q-272 0 -272 -307z" />
<glyph unicode="9" horiz-adv-x="952" d="M-317 -561q3 23 21 41t31 18t17 -5.5t12 -18.5t11 -15q103 -224 243 -247q39 -7 76 -7q165 0 298 155q172 202 256 598q24 116 36 228q-172 -186 -362 -186q-145 0 -218 140q-58 111 -58 219q0 28 4 55q33 241 142 388q169 222 496 222q95 0 176 -46q27 -15 47 -36 q32 -4 39 -14q12 -17 12 -48l-1 -78q0 -56 -35 -176t-95 -231q-20 -86 -39 -186.5t-58 -285.5q-99 -478 -306 -679q-127 -125 -326 -125q-151 0 -235 65t-182 234q-2 5 -2 10v11zM139 327q0 -52 29 -119q52 -114 182 -114q157 0 302 182q42 53 77 113q22 78 49 242t49 243 q-56 52 -131 52q-144 0 -253.5 -42.5t-190.5 -158.5t-109 -317q-4 -29 -4 -81z" />
<glyph unicode=":" horiz-adv-x="485" d="M-18 97q0 40 27 61.5t68.5 21.5t84.5 -30.5t43 -67.5t-23 -64q-47 -52 -106 -57q-22 3 -29 8h-2q-19 0 -41 44t-22 84zM166 785.5q0 47.5 33 94t73.5 46.5t79.5 -32.5t39 -65.5t-12.5 -56.5t-32.5 -42t-45 -30t-53 -11.5t-55 25t-27 72.5z" />
<glyph unicode=";" horiz-adv-x="506" d="M-68 -284q0 14 13 38q86 106 117.5 175t31.5 100v2q-5 -19 -23.5 -33t-43 -14t-38.5 22t-14 52.5t40.5 71t79 40.5t69.5 -36.5t31 -67.5q0 -79 -97 -248q-45 -79 -77 -107t-49.5 -28t-28.5 9.5t-11 23.5zM168 830q0 41 27.5 69.5t71.5 28.5t80 -29.5t36 -74.5t-36 -82 t-81 -37h-10q-6 0 -12 2q-9 -7 -23 -7q-24 0 -38.5 44.5t-14.5 85.5z" />
<glyph unicode="&#x3c;" horiz-adv-x="934" d="M266 481.5q0 83.5 136 182.5q33 24 57 45l114 108q4 3 9.5 11t7.5 8q0 -2 -1 -3.5t-1 -3.5q23 27 46 55q86 104 165 136h10q32 0 32 -19q0 -46 -36.5 -63t-268.5 -260l-30 -29q-2 0 -43.5 -33t-66.5 -55.5t-26 -38t15 -44t40 -62.5t53 -70t55.5 -67.5t47 -55.5t26 -32.5 t5.5 -26.5t-21.5 -36.5t-40 -18.5t-28.5 4q-11 14 -34 40q-222 245 -222 328.5z" />
<glyph unicode="=" horiz-adv-x="934" d="M98 719q0 102 328 102t328 -53q0 -19 -14.5 -36t-34.5 -23q-266 14 -338 14q-172 0 -197 -29q-18 -12 -35 -12q-37 0 -37 37zM119 451q0 45 75 77q108 45 310 45q77 0 153.5 -4t147.5 -6q35 -10 35 -35q0 -18 -14.5 -35.5t-34.5 -23.5l-299 12q-212 0 -316 -63 q-12 -4 -22 -4q-35 0 -35 37z" />
<glyph unicode="&#x3e;" horiz-adv-x="934" d="M311 122.5q0 30.5 38.5 53.5t73 52t66 60.5t62 63.5t63.5 62l97 86q-28 26 -58.5 49t-66 60.5t-68.5 95.5t-67 112v8q0 28 20 49t39.5 21t26.5 -4l2 2q0 -6 6 -6l4 -4l4 -15q129 -219 212 -269q62 -37 62 -67.5t-21.5 -53.5t-44.5 -44t-49.5 -45t-52 -47t-47.5 -42.5 t-53 -51.5q-95 -96 -197 -152q-12 -4 -22 -4q-29 0 -29 30.5z" />
<glyph unicode="?" horiz-adv-x="913" d="M61 1625q0 177 169 280q142 86 315 86q237 0 319 -218q29 -79 29 -174t-12 -153t-33.5 -107.5t-50.5 -92.5t-62.5 -87t-70.5 -91q-95 -125 -152.5 -249t-101.5 -450q-3 -25 -22 -41.5t-36 -16.5q-33 0 -37 43q51 289 78 382.5t70.5 170.5t166.5 250q167 239 167 419 t-85 260q-64 58 -156 58q-176 0 -292.5 -76t-116.5 -202q0 -22 16.5 -76t16.5 -67q0 -25 -28 -25q-91 0 -91 177zM240 65q0 40 39.5 73.5t74.5 33.5q72 0 72 -60q0 -28 -14 -75q-31 -59 -78 -74q-63 0 -86 46q-8 16 -8 56z" />
<glyph unicode="@" horiz-adv-x="1706" d="M20 836q0 297 109.5 541t325 395t518.5 151q339 0 543 -256t204 -715q0 -164 -110 -341q-81 -131 -210 -188q-68 -30 -144 -30q-129 0 -173 127q-28 81 -28 244v72q-149 -418 -311 -519q-38 -24 -78 -24q-136 0 -136 246.5t64 458.5q136 444 342 444q30 0 55 -15.5 t39.5 -25t31.5 -15.5q34 -10 34 -40t-38 -48q-12 -6 -28 -6t-57 27t-70.5 27t-63.5 -33.5t-72 -104t-90 -261.5t-52 -369.5t55 -178.5q102 0 285 473q11 30 23 76q48 191 118 191q47 0 47 -193l-2 -198q0 -180 40 -236q17 -23 46 -23q128 0 228 89q173 153 173 440 q0 80 -21.5 186.5t-62.5 199.5q-82 192 -231.5 305.5t-339.5 113.5q-263 0 -457.5 -130t-298.5 -346t-104 -466q0 -652 387 -865q159 -88 364 -88q263 0 458 160q105 86 181 178.5t125 149.5q20 16 41 16q35 0 35 -35q0 -21 -16 -41q-56 -64 -108.5 -128t-108.5 -122 q-126 -132 -275.5 -204t-361 -72t-390.5 108q-304 183 -400 596q-34 146 -34 302z" />
<glyph unicode="A" horiz-adv-x="1438" d="M-160 47q0 26 18 45t37.5 19t30.5 -17l2 2q214 83 404 336q29 40 47 63t35 48q-155 8 -232 16q-28 11 -28 33t17.5 40t39.5 21q79 -10 266 -18q173 261 443 769q169 318 219 548q8 21 26 35t35 14q26 0 29 -31q16 -16 14.5 -36t-12.5 -31q-23 -81 -32.5 -169.5 t-39 -327.5t-29.5 -402t25 -396q123 -13 133 -27t10 -31t-18.5 -34.5t-40 -16t-37.5 4t-33 4.5v-10q0 -6 3.5 -31t4 -69t4 -78.5t11.5 -71.5t23.5 -106.5t15.5 -91.5t-16.5 -39t-37 -17t-35.5 29.5t-25 75.5t-16.5 103t-11.5 112.5t-8.5 103t-7.5 74.5l-6 28 q-136 14 -275 16t-278 5q-264 -400 -498 -506q-78 -39 -122 -39q-54 0 -54 51zM578 633q120 -2 240.5 -3.5t238.5 -11.5q-17 134 -17 363.5t43 556.5q-121 -251 -268.5 -508.5t-236.5 -396.5z" />
<glyph unicode="B" horiz-adv-x="1053" d="M-167 94.5q0 11.5 11.5 25t22 13.5t21.5 -3q14 -5 47 -20.5t106 -15.5l53 223q31 158 69.5 317.5t76.5 323.5l-62 3q-31 0 -31 34q0 49 111 49q45 191 80 415t90 399q-37 -16 -68 -43q-18 -37 -53 -37q-9 0 -22 8.5t-13 32.5q0 47 60 83.5t137 51.5q13 21 31.5 21 t31.5 -17q190 -6 305 -130.5t115 -332.5q0 -170 -125.5 -314t-281.5 -165q174 -11 305 -152.5t131 -293.5q0 -292 -223.5 -439t-605.5 -147l-43 2q-7 -29 -7 -49q-5 -26 -22.5 -43t-33.5 -17q-35 0 -40 41q4 32 14 82l-58 12q-124 25 -128 66q-1 5 -1 16.5zM127 80 q27 -4 80 -4q327 0 503.5 131t176.5 350q0 153 -140 273t-311 120q-44 0 -108 4q-97 -421 -121.5 -536t-31.5 -141.5t-15 -58.5l-17 -68q-9 -36 -16 -70zM348 1047q211 14 357.5 138.5t146.5 308.5t-94.5 278t-245.5 98q-50 -165 -96.5 -446.5t-67.5 -376.5z" />
<glyph unicode="C" horiz-adv-x="1098" d="M61 548q0 171 54.5 407.5t156.5 477t244 401.5t302 161t269 -133.5t109 -272.5q-3 -21 -21 -39t-36 -18t-27 12q-13 18 -18 66q-16 127 -91 206.5t-187 79.5t-239 -151q-169 -200 -290 -566.5t-121 -579t72 -355.5q88 -174 254 -174q122 0 280 114q44 32 71 52t44 20 q35 0 35 -37q0 -28 -31 -51q-47 -32 -95 -68q-174 -130 -320 -130q-82 0 -156 42q-157 88 -225 317q-34 115 -34 219z" />
<glyph unicode="D" horiz-adv-x="1370" d="M-147 74.5q0 11.5 11.5 25t22 13.5t21.5 -3q14 -5 49.5 -21.5t101.5 -16.5q228 1122 443 1763q-125 -42 -226 -106q-13 -5 -22 -5q-35 0 -35 37q0 30 25 47q149 92 297 134q19 26 39.5 26t27.5 -10q96 22 215.5 22t222.5 -51q291 -145 291 -643q0 -575 -287 -926 q-199 -242 -526 -334q-166 -46 -368 -46h-13q-7 -67 -32 -85q-11 -8 -29 -8q-39 0 -39 41q0 20 4 58q-29 6 -59 11q-130 21 -134 61q-1 5 -1 16.5zM158 68q358 0 602 161.5t362.5 432.5t118.5 600q0 620 -467 620q-96 0 -174 -20q-173 -542 -329 -1258q-54 -247 -113 -536z " />
<glyph unicode="E" horiz-adv-x="1145" d="M-31 40q0 13 7 24t18 35.5t25 65.5q26 77 54.5 200t108 503t199.5 922q-33 3 -33 39.5t60 68.5q0 64 61 64q30 0 35 -31q200 51 624 51q60 0 99 -6t39 -30q0 -35 -28 -54q-9 -6 -21 -6h-138q-431 0 -590 -53q-39 -138 -93.5 -406t-78.5 -366q66 -8 280 -8t286 4 q35 -10 35 -33q0 -41 -40.5 -54.5t-129.5 -13.5l-451 11q-35 -124 -100 -425.5t-109 -449.5l791 -16q102 0 141 4q35 -10 35 -34q0 -42 -46 -55q-31 -9 -122.5 -9t-209 3.5t-227 7.5t-202 7.5t-152.5 3.5l-69 -6q-35 0 -46.5 14.5t-11.5 27.5z" />
<glyph unicode="F" horiz-adv-x="975" d="M-45 1569q0 99 420 213q50 13 82 22q19 80 35 135q21 31 51 31q37 0 37 -35q0 -14 -9 -28l-16 -76q477 120 1098 129q35 -10 35 -35q0 -18 -15 -35.5t-35 -23.5q-621 -9 -1103 -133q-29 -144 -58 -286.5t-45 -289.5l-6 -55l113 12q156 14 305.5 17.5t204.5 5.5 q30 -12 30 -33t-16.5 -38.5t-38.5 -21.5q-80 -4 -212 -6.5t-282 -13.5l-116 -14q-48 -363 -146 -822q-20 -91 -43 -200q-19 -41 -57 -41q-31 0 -35 41q114 541 142.5 727.5t41.5 283.5q-17 -2 -33 -2h-34q-44 0 -74.5 7t-30.5 32q0 19 19 37.5t45 20.5q30 -4 53 -4h39 q15 0 31 2l6 51q31 261 96 563q-346 -92 -407 -162q-20 -12 -35 -12q-37 0 -37 37z" />
<glyph unicode="G" horiz-adv-x="1374" d="M49 571q0 233 122 595q84 249 214 455.5t297 293.5q87 45 178 45q173 0 275 -104t133 -279q-3 -22 -21.5 -39.5t-40 -17.5t-32.5 28q-24 67 -48 124q-78 192 -266 192q-151 0 -294 -144q-184 -188 -303.5 -538t-119.5 -567t71 -362q94 -192 310 -192q355 0 483 197 q46 71 60 160q-3 11 -3.5 22t-24.5 41t-98.5 103.5t-137.5 117.5q-132 -27 -299 -49q-41 4 -41 37q0 26 24 47q136 97 232 97q58 0 115 -31q246 54 557 153q49 0 49 -34q0 -10 -8 -31q-262 -429 -398 -940q-68 -257 -108.5 -474.5t-65.5 -336.5q-3 -25 -22 -41.5t-35 -16.5 q-33 0 -37 44q68 432 115.5 621.5t99.5 369.5q-180 -148 -471 -148q-152 0 -264 98q-146 127 -186 368q-11 70 -11 136zM932 729q92 -88 106.5 -103t41.5 -40t48 -54q38 79 81.5 153t86.5 149q-181 -62 -364 -105z" />
<glyph unicode="H" horiz-adv-x="1460" d="M-303 592q0 121 242 266q83 49 134.5 68t106 43t93 36.5t49.5 16.5q43 180 66 374t35.5 308.5t27.5 228.5q6 49 59 49q22 0 29.5 -8t5.5 -26q-24 -287 -123 -899q308 79 780 100q67 508 81 565q44 178 48 240q6 20 23.5 34.5t36.5 14.5q25 0 34 -35q-3 -55 -19 -124 l-25 -108q-18 -78 -43 -267.5t-42 -317.5l467 14q35 -9 35 -35q0 -18 -14.5 -35.5t-34.5 -23.5q-116 -5 -232 -7t-235 -5q-18 -146 -53 -322t-66.5 -349.5t-38.5 -352.5q-3 -25 -21.5 -41.5t-37.5 -16.5q-31 0 -35 43q7 185 39 360.5t53 281t39 212.5l29 181 q-475 -19 -793 -105q-62 -251 -132.5 -496t-129.5 -483q-21 -41 -57 -41q-31 0 -35 41q56 230 124 468.5t130 482.5q-262 -87 -416 -209q-8 -6 -23 -17q-69 -51 -69 -84v-4l4 -18q0 -23 -16.5 -40.5t-36.5 -17.5q-43 0 -43 60z" />
<glyph unicode="I" horiz-adv-x="555" d="M-115 25q0 69 193 69h8q85 456 215 1009t180 771q-15 -1 -25 -1h-54l-87 1q-39 0 -39 38q0 17 19 34.5t45 19.5h175q104 0 230 -2q31 -11 31 -32t-16 -38t-39 -22h-65q-28 0 -78 2q-296 -1190 -404 -1782q189 -5 206 -38q5 -8 5 -21t-17.5 -31.5t-41.5 -21.5 q-56 0 -116.5 9t-93.5 13t-80 4t-99 -16h-11q-21 0 -31 10.5t-10 24.5z" />
<glyph unicode="J" horiz-adv-x="1044" d="M-133 365.5q0 29.5 16.5 48t30.5 18.5q36 0 42 -27q16 -70 57 -151t104.5 -137t160 -56t177.5 54.5t139 148.5q96 157 168 496q15 74 34.5 166.5t40.5 194t43 206.5t43 203.5t39.5 185.5t32.5 152q-72 -41 -148 -41t-190 30.5t-176 36.5q-28 13 -28 34t17.5 39.5 t39.5 21.5q52 -6 161.5 -36t177 -30t134.5 39q13 8 25.5 8t25.5 -8q11 8 24 8q29 0 38 -35q-60 -224 -124 -559.5t-83 -433.5t-48.5 -252.5t-91.5 -323t-171 -272.5q-131 -121 -335.5 -121t-316.5 238q-59 125 -59 154.5z" />
<glyph unicode="K" horiz-adv-x="1255" d="M-14 25q92 509 229.5 1100t190.5 825q8 21 26 35t32 14q34 0 34 -37v-12q-50 -257 -110.5 -518.5t-119.5 -522.5q114 129 430 481t502 574q20 16 41 16q35 0 35 -34q0 -21 -16 -41q-154 -184 -465.5 -535t-415.5 -473q28 -287 168 -537q98 -174 235 -248q70 -38 144 -38 t114 15t78 73q20 16 38 16q40 0 40 -36t-61 -89t-113 -62t-120.5 -9t-148.5 39.5t-145 106.5q-119 120 -198.5 311t-112.5 382q-22 -25 -42 -43t-34 -41q-104 -469 -141 -698q-5 -25 -23 -41t-35 -16q-32 0 -36 43z" />
<glyph unicode="L" horiz-adv-x="928" d="M-12 55.5q0 30.5 30 77.5t41 93.5t54 196.5t80 352t110 541.5t125 594.5q6 20 24 34.5t35 14.5q27 0 35 -35q-46 -203 -129 -630.5t-120 -580.5t-67.5 -309t-72.5 -294q218 -37 354 -37h43l180 8q38 0 134 12q35 -9 35 -35q0 -17 -15 -35t-35 -24q-142 -14 -274 -14 l-518 16q-10 -4 -20.5 -4t-19.5 13.5t-9 44z" />
<glyph unicode="M" horiz-adv-x="1753" d="M-12 18q65 357 221 1004.5t215 908.5q6 20 23.5 34.5t32.5 14.5q29 0 38 -34q85 -368 171.5 -785t141.5 -651q137 236 254 469t230.5 460t251.5 494q27 49 59.5 49t32.5 -30v-6q-61 -1017 -68 -1870q13 -26 -1 -52q-24 -49 -56 -49q-39 0 -42 69q-1 20 -1 127t5.5 304 t13 395.5t15.5 396t13 390.5q-99 -221 -343.5 -686.5t-328.5 -634.5q-23 -43 -52 -43t-40 29q-52 240 -158 715t-145 669q-67 -340 -212 -938t-179 -750q-20 -41 -57 -41q-31 0 -35 41z" />
<glyph unicode="N" horiz-adv-x="1329" d="M-14 17q0 12 69.5 298.5t206.5 957.5t145.5 691.5t31.5 20.5t35.5 -14t19.5 -51q34 -167 206.5 -826t251.5 -936q47 266 160 853.5t174 927.5q7 22 29.5 36t41.5 14t20 -12.5t1 -37.5q-127 -613 -226 -1171t-115.5 -649.5t-21.5 -102t-19.5 -25t-39 -14.5t-52.5 47 q-27 49 -64 198t-173.5 664.5t-215.5 844.5q-47 -215 -165.5 -788t-203.5 -923q-9 -40 -52.5 -40t-43.5 37z" />
<glyph unicode="O" horiz-adv-x="1270" d="M61 604q0 439 169 810q183 405 477 405q114 0 215 -82q18 -20 18 -41q0 -49 -33 -49q-8 0 -47 21q-91 50 -185 50q-123 0 -246 -160.5t-199 -412.5t-76 -498q0 -475 176 -575q42 -23 113 -23t149 35q215 99 361 418q92 201 140 428t48 439.5t-79 374.5q-57 114 -148 140 q-46 12 -87.5 20t-70.5 18t-29 30q0 38 51 45q401 0 450 -525q9 -89 9 -192q0 -220 -59.5 -454.5t-169 -433.5t-259 -318t-323.5 -119q-365 0 -365 649z" />
<glyph unicode="P" horiz-adv-x="1096" d="M94 909q0 25 17 37t36 12t37 -5t36 -12t36 -15.5t33 -14.5l205 961q-91 -28 -134 -105q-18 -24 -47 -24q-37 0 -37 35q0 7 5 22q72 137 243 170q22 41 51.5 41t34.5 -31h8q229 0 359.5 -152.5t130.5 -340.5q0 -316 -161 -507q-174 -208 -490 -208q-49 0 -103 14 q-23 -115 -72.5 -344t-78.5 -395q-5 -25 -23 -41t-34 -16q-33 0 -37 43q34 197 86.5 437.5t72.5 338.5q-174 56 -174 100zM375 881q48 -13 145.5 -13t193 46t164.5 124q144 166 144 400q0 182 -116 316t-316 134z" />
<glyph unicode="Q" horiz-adv-x="1321" d="M61 580q0 327 70.5 610.5t216.5 453.5q171 199 418 199q44 0 89.5 -12t53.5 -16q5 -8 11 -11.5t6 -17.5t-17.5 -29.5t-38.5 -15.5t-67 14t-66 14q-177 0 -313 -177q-190 -246 -245 -714q-17 -144 -17 -288q0 -543 305 -543q149 0 299 150q285 289 388 792q40 200 40 397 t-87 356q-99 181 -263 181q-81 0 -150 -20q-41 4 -41 34q0 78 190 78t316.5 -184.5t126.5 -376.5q0 -377 -100 -719t-291 -563t-451 -221q-6 0 -11 1t-11 1q521 -596 1126 -596q166 0 345.5 28t383.5 66q50 0 50 -31q0 -17 -14 -35t-36 -26q-212 -40 -397.5 -68t-341.5 -28 q-330 0 -618 155q-348 187 -668 598q-102 84 -146.5 244.5t-44.5 319.5z" />
<glyph unicode="R" horiz-adv-x="948" d="M8 29q0 9 3 20.5t12 56.5q22 113 149.5 721.5t216.5 1003.5q-30 -19 -72 -57q-2 -22 -21 -38t-44 -16l-25 6q-28 13 -28 42q0 56 65.5 103.5t163.5 72.5q36 86 66 86q24 0 36 -68q43 6 82 6q215 0 325 -152q91 -126 91 -333q0 -266 -156.5 -443.5t-437.5 -177.5 q0 -342 116 -667q135 -383 410 -565q210 -140 495 -140t521 192q71 59 148 128q8 8 26 8q37 0 37 -37q0 -21 -16 -41q-152 -157 -297 -235q-198 -107 -447.5 -107t-484.5 144q-424 262 -559 882q-49 225 -49 510q0 61 34 61q20 0 26 -6t22.5 -18.5t94 -12.5t161 44 t144.5 118q128 157 128 373q0 168 -81.5 284.5t-213.5 116.5q-105 0 -160 -16l-378 -1847q-11 -35 -57 -35t-46 33z" />
<glyph unicode="S" horiz-adv-x="1147" d="M-14 379q0 194 116 335q42 51 103 105q20 17 38 17q40 0 40 -33q0 -17 -9 -31q-102 -94 -135 -156q-55 -108 -55 -208t35 -160t93 -100q114 -80 296.5 -80t295.5 144q97 123 97 300.5t-166 563.5t-166 536.5t72 259t221 108.5q239 0 316 -258q8 -13 8 -31.5t-17.5 -34.5 t-35.5 -16q-31 0 -37 38q-14 90 -76 153t-158 63t-145 -67t-49 -158t24.5 -187t61.5 -192t79.5 -192t79.5 -193q86 -225 86 -404.5t-99 -328.5q-127 -195 -400 -195q-209 0 -361.5 104t-152.5 298z" />
<glyph unicode="T" horiz-adv-x="1186" d="M160 1896q0 57 104 64q29 2 58 2l419 -8q29 86 78 86q29 0 35 -35l4 -41l-2 -10q57 2 101.5 5t83 5.5t115.5 8t170 5.5h74q13 0 27 2q35 -9 35 -34q0 -62 -100 -62q-130 0 -278 -10t-269 -12q-34 -169 -82.5 -380.5t-144.5 -696.5t-148 -805q-5 -25 -22.5 -41.5 t-33.5 -16.5q-34 0 -38 43q61 506 270 1396q30 130 46 190t21 92t10.5 68.5t11 75t12.5 75.5q-234 6 -322.5 6t-191.5 -6q-43 4 -43 34z" />
<glyph unicode="U" horiz-adv-x="1309" d="M100 373q0 70 17 119q35 198 65.5 377.5t82 461t141.5 606.5q21 31 44 31q44 0 44 -35q-2 -12 -6.5 -24.5t-8.5 -24.5l-39 -125q-44 -213 -111.5 -587.5t-105 -558t-37.5 -261.5q0 -118 76 -198t215 -80q218 0 325 132q59 72 86 152l44 129q68 207 173.5 699.5 t168.5 701.5q11 37 32 58.5t40 21.5q36 0 36 -35q0 -21 -22 -73.5t-37 -106.5t-39.5 -159t-51 -225.5t-54.5 -248.5q-101 -474 -155 -636t-97 -243q-138 -261 -450 -261q-168 0 -272 116t-104 277z" />
<glyph unicode="V" horiz-adv-x="1094" d="M162 1927q6 20 23.5 34.5t32.5 14.5q29 0 38 -34q31 -322 126.5 -917t129.5 -882q356 562 498 982q106 314 106 569q0 72 -14 156t-21 135q0 26 18 44.5t35 18.5q35 0 42 -35q11 -74 22.5 -147t11.5 -185q0 -234 -106 -550.5t-263 -610t-332 -520.5q-25 -33 -45.5 -33 t-31.5 29q-17 112 -33 270t-104 729t-133 932z" />
<glyph unicode="W" horiz-adv-x="1559" d="M129 1864q0 63 25.5 81.5t42.5 18.5q30 0 30 -37l-10 -127q0 -64 8.5 -160.5t15 -239t62.5 -581t68 -676.5q45 97 83.5 179.5t73.5 164.5q137 322 306 955q-3 102 -3 238t19.5 204t67.5 68q57 0 57 -185q0 -123 -47 -327q4 -120 4 -164v-178q0 -494 54 -762 q25 -121 67 -217q310 561 415 931q78 273 78 530t-140 530q-101 195 -261 280q-83 43 -184 43q-30 0 -51.5 -12.5t-32.5 -18.5l-31 -94q-20 -41 -58 -41q-30 0 -34 41q6 19 10 39.5t10 40.5q38 141 216.5 141t330.5 -145.5t238 -361.5t86 -384q0 -736 -500 -1550 q-66 -108 -112 -108t-105 208q-90 334 -90 926q-155 -541 -334 -901q-32 -63 -62 -123q-61 -121 -127 -121q-18 0 -30.5 17.5t-12.5 48.5q0 288 -26.5 534t-45 390t-45 386.5t-26.5 518.5z" />
<glyph unicode="X" horiz-adv-x="1286" d="M-115 23l2 10q211 268 559 779q90 132 181 263q-56 196 -108.5 388t-112.5 378l-9 39h-2q-28 0 -28 35t26.5 61.5t40.5 26.5h18q4 0 13 -3.5t32.5 -71.5t54.5 -179.5t69 -257.5t81 -307q324 459 550 710q69 76 90 82t35 6t25 -9t11 -24t-27 -49t-162.5 -192t-486.5 -653 q215 -783 346 -1041q0 -29 -20.5 -50t-43.5 -21t-32 14q-2 0 -2 -2q-12 48 -22 95.5t-25 92.5q-125 279 -276 803q-158 -230 -320.5 -466.5t-345.5 -479.5q-17 -27 -46 -27q-65 0 -65 50z" />
<glyph unicode="Y" horiz-adv-x="881" d="M98 -41q0 49 72 66q40 9 77.5 17.5t76.5 16.5q47 131 66 248.5t29 196t23 170.5q-88 114 -226 900q-35 202 -54 343q0 26 15 45.5t38 19.5t45 -18q8 -11 8 -27.5t-10 -29.5q12 -86 25 -182q89 -656 206 -947q46 102 150 373.5t200.5 464t225.5 348.5q13 16 35 16 q41 0 41 -34q0 -22 -17 -41q-166 -178 -339 -619q-47 -119 -122.5 -319t-111.5 -271q-31 -120 -67 -313t-66 -309q52 6 102 6q199 0 199 -55q0 -22 -20.5 -39t-45.5 -17q-63 17 -162.5 17t-200 -24.5t-112.5 -24.5h-6v2q-7 -17 -37 -17q-37 0 -37 37z" />
<glyph unicode="Z" horiz-adv-x="981" d="M-152 29q0 16 13 37q130 190 285 400.5t320 439.5q407 567 646 988l-45 -4q-268 -20 -561 -20h-150q-122 0 -190 12q-29 11 -29 40t37 47q11 5 23 5l338 -12q265 0 404.5 15.5t223.5 15.5t84 -41q0 -20 -8 -33q-550 -873 -1198 -1769q24 8 81 8q100 0 286.5 -183.5 t370.5 -284t369 -100.5t347 101q21 13 47.5 35t72 59t75.5 37t30 -33t-50 -76q-87 -73 -144 -102q-246 -119 -418 -119q-248 0 -551 222q-160 118 -214 176.5t-93 93.5q-95 84 -182 84q-34 0 -78.5 -26t-66 -38t-38.5 -12q-37 0 -37 37z" />
<glyph unicode="[" horiz-adv-x="588" d="M-45 -598q22 204 63 406q227 1138 443 2121q9 20 30 34.5t37 14.5t21 -10q65 -3 126 -10.5t126 -9.5q26 -5 26 -31.5t-38 -52.5q-11 -7 -23 -11q-14 0 -225 19q-243 -1141 -313 -1488.5t-109.5 -541t-61.5 -385.5q13 -6 56 -6t180 34t164.5 34t27.5 -23q-2 -17 -18.5 -39 t-50 -31t-137.5 -38t-175 -29t-105.5 7.5t-43.5 35.5z" />
<glyph unicode="\" horiz-adv-x="815" d="M-236 2054q0 35 38.5 35t54.5 -39q98 -245 341 -870t384.5 -940.5t246.5 -553.5t121 -334q6 -31 14.5 -84.5t32.5 -101.5q37 -21 37 -54.5t-37 -33.5q-41 7 -62 32t-37 62t-27 81.5t-20 87t-16.5 79.5t-37.5 118t-92.5 215t-200.5 449.5t-213 506.5l-185 458 q-31 76 -105 270.5t-132 346t-81.5 207.5t-23.5 63z" />
<glyph unicode="]" horiz-adv-x="674" d="M-61 -319q0 29 53 83.5t85 85.5q103 100 181 247q207 387 207 789.5t-193 764.5q-17 32 -61.5 113.5t-65.5 154.5q0 25 17 45.5t37.5 20.5t36.5 -23q22 -77 95 -203t97 -195q72 -205 103 -330t31 -263v-9q0 -264 -60 -503t-166.5 -399t-134.5 -194.5t-51 -59.5t-56 -60 t-84 -90q-18 -12 -35 -12q-36 0 -36 37z" />
<glyph unicode="^" horiz-adv-x="1067" d="M205 1927q0 46 59 69q121 50 444 427q38 45 66 76l41 45q0 2 13.5 19t45 17t31.5 -26q0 -9 -4 -23l-22 -41q-2 -4 -2 -10q13 -45 28 -99t45 -148.5t82 -175.5q66 -106 150 -136q16 -13 16 -31.5t-25.5 -38.5t-52.5 -20q-136 51 -220 245q-23 54 -44.5 106t-44 103 t-29.5 105l-61 -66q-48 -53 -101 -114q-208 -239 -366 -303q-12 -4 -23 -4q-26 0 -26 24z" />
<glyph unicode="_" horiz-adv-x="1335" d="M-18 -39q0 27 18.5 45.5t47 18.5t65.5 -8.5t81 -8.5t92 3t143.5 6.5t403 3.5t482.5 12q35 -10 35 -35q0 -19 -15 -36t-35 -23q-154 -11 -444 -11l-680 -14q-194 0 -194 47z" />
<glyph unicode="`" horiz-adv-x="567" d="M113 2494q0 26 17.5 45t34.5 19q36 0 42 -35q22 -122 182 -328q8 -10 8 -29.5t-16.5 -37t-35 -17.5t-34.5 15q-166 216 -198 368z" />
<glyph unicode="a" horiz-adv-x="920" d="M33 147q0 147 109.5 360.5t257.5 369t241.5 155.5t106.5 -82q4 -25 6 -53q9 6 22 6q47 0 47 -45v-8q0 -3 -25 -90t-57 -290t-32 -347q9 -6 21 -13.5t30 -23t18 -36.5t-13 -37.5t-37 -16.5q-49 0 -88.5 50t-39.5 108q0 125 68 430q-85 -178 -220 -343t-186.5 -203 t-111.5 -38q-117 0 -117 147zM135 143q0 -37 31 -37q22 0 37 15q207 178 371 493q93 180 98.5 207t5.5 46t-10 36t-28 17t-53 -19q-77 -42 -189.5 -179t-187.5 -298t-75 -281z" />
<glyph unicode="b" horiz-adv-x="805" d="M152 258q0 110 15.5 212t33.5 216t34.5 208.5t31.5 174.5t30.5 155.5t55.5 269t83 439.5q17 33 41 33q53 0 53 -45l-4 -14q-53 -348 -114.5 -626t-108.5 -505q63 113 106 160q86 94 167 94t124 -62t43 -130q0 -148 -46.5 -351.5t-127.5 -337.5q-101 -169 -231 -169 q-94 0 -140 84t-46 194zM256 258q0 -174 82 -174q75 0 148 122q99 165 138 409q11 69 11 146.5t-14 123t-58 45.5q-65 0 -171 -153t-121 -301.5t-15 -217.5z" />
<glyph unicode="c" horiz-adv-x="694" d="M61 224q0 179 66.5 371t175 322t229.5 130q88 0 116 -63q7 -17 16.5 -43.5t21.5 -33.5q8 -13 8 -31.5t-17 -34.5t-38 -16q-43 0 -55 63.5t-67 63.5q-77 0 -159.5 -117t-139 -284t-56.5 -293q0 -182 133 -182q66 0 124 64q22 25 41 45t39 20q40 0 40 -35q0 -64 -82 -129.5 t-185.5 -65.5t-157 76.5t-53.5 172.5z" />
<glyph unicode="d" horiz-adv-x="899" d="M61 238q0 306 116 518q54 98 95.5 145t106.5 90t160 43t137 -92l98 430q10 46 48.5 237.5t56.5 266.5l4 25q0 26 17.5 44.5t36.5 18.5q44 0 44 -47v-9q0 -49 -70.5 -373t-91.5 -456t-79.5 -369t-73.5 -320t-29 -140.5t-14 -114.5t18 -115q-3 -24 -22 -40.5t-35 -16.5 q-26 0 -45 61.5t-19 103t12 97.5q-41 -124 -106 -183.5t-170.5 -59.5t-150 86.5t-44.5 169.5zM154 259q0 -113 64 -161q21 -16 56 -16q71 0 152 121t121 228.5t55.5 189t20 104t4.5 74t-30 100.5t-85 49q-98 0 -179.5 -123.5t-130 -288t-48.5 -277.5z" />
<glyph unicode="e" horiz-adv-x="664" d="M68 260q0 200 60 377t160 293.5t216 116.5q62 0 97.5 -51.5t35.5 -121.5q0 -131 -68.5 -222t-168.5 -149t-230 -110l-4 -147q0 -172 104 -172q56 0 117.5 32.5t88.5 47t42 14.5q35 0 35 -37q0 -43 -105 -97t-175 -54t-105 23t-57 64q-43 80 -43 193zM186 492q40 22 82 42 t82 42q92 51 142.5 119.5t50.5 174.5q0 80 -67 80q-60 0 -141 -108t-134 -285q-13 -43 -15 -65z" />
<glyph unicode="f" horiz-adv-x="700" d="M-831 -663q0 17 18 31t41 14l12 -3q114 -82 173 -102t155 -20t171.5 32t132 87t97.5 129.5t69.5 159t48 175t34 178.5t26 169t25.5 147q22 149 42 301t46 299q-32 2 -54 2l-136 -6q-41 3 -41 37q0 53 116 56q37 1 82 1h54q56 231 90 326q69 194 167.5 296.5t268.5 102.5 t170 -61q0 -33 -41 -60q-140 10 -164 10q-149 0 -250.5 -176.5t-140.5 -437.5q66 -2 87 -2l45 1l81 1h22q10 0 25 -2q57 0 57 -39q0 -50 -98 -54q-27 -1 -58 -1h-74q-42 0 -108 2q-39 -215 -63.5 -380.5t-36 -234t-24 -167t-39.5 -268.5q-71 -438 -285 -614 q-133 -108 -352 -108q-155 0 -284 74q-51 30 -79 59t-28 46z" />
<glyph unicode="g" horiz-adv-x="778" d="M-94 -596q0 160 165 304q67 58 180.5 141t178.5 137q9 45 21.5 98.5t22.5 97.5t20 87t18.5 82t15.5 67q-55 -177 -114 -268q-109 -166 -184.5 -166t-122 57t-46.5 152q0 175 66 370.5t182 337t254 141.5q70 0 125 -32q12 6 27 6q33 0 33 -33.5t-12 -65.5t-25.5 -82.5 t-38.5 -154.5t-49 -210.5t-46.5 -212.5t-44.5 -204q38 26 75.5 60t63 54.5t43.5 20.5q38 0 38 -34q0 -27 -17 -41q-127 -97 -215 -160l-59 -301q-60 -305 -153 -410q-74 -82 -171.5 -82t-164 66.5t-66.5 177.5zM6 -585.5q0 -109.5 48 -138.5q21 -13 64 -13q88 0 148.5 95.5 t116.5 354.5l31 162q-75 -62 -148.5 -117.5t-131.5 -110.5q-128 -123 -128 -232.5zM154 227.5q0 -145.5 76 -145.5q67 0 154.5 129t140 308.5t79.5 279t37 135.5q-32 27 -79 27q-91 0 -186 -119t-158.5 -294t-63.5 -320.5z" />
<glyph unicode="h" horiz-adv-x="958" d="M82 18q0 34 200 952q149 703 189 949l8 27q9 30 36 30q51 0 65 -51q-8 -38 -21.5 -106t-31.5 -155t-39 -188t-43 -205t-67 -318t-77 -359q209 430 395 430q76 0 113 -59.5t37 -131.5t-26 -201l-34 -172q-56 -283 -56 -338l3 -78q0 -26 -17.5 -42t-46.5 -16t-42.5 20.5 t-13.5 39.5t3 34l119 665q6 32 6 74q0 103 -57 103q-108 0 -294 -323q-105 -183 -129 -253.5t-47 -162t-23 -117.5l2 -35q0 -47 -76 -47q-35 0 -35 34z" />
<glyph unicode="i" horiz-adv-x="438" d="M63 92q0 23 9.5 51.5t20 79t30 137.5t40 180t50 225.5t29.5 143.5v20q0 14 -15 68q0 25 17 45.5t41.5 20.5t40.5 -31t16 -68t-94 -442t-94 -426.5t20 -21.5q13 0 37 25.5t41 25.5q33 0 33 -41.5t-62 -72.5t-90 -31q-70 0 -70 112zM285 1288.5q0 31.5 31 59.5t67 28 q59 0 59 -59q0 -86 -60 -97q-17 -3 -37 -3t-40 20t-20 51.5z" />
<glyph unicode="j" horiz-adv-x="412" d="M-684 -778q0 18 15.5 36t35.5 23q66 -26 175 -26q399 0 499 524q148 782 207 1214q5 23 22.5 35t34.5 12q35 0 35 -36l-44 -308q-111 -794 -210 -1098q-83 -254 -247 -361q-130 -85 -316 -85q-111 0 -184 40q-23 12 -23 30zM279 1292.5q0 28.5 20 50t57 21.5t56.5 -26 t19.5 -59t-26.5 -51t-55.5 -18t-50 27t-21 55.5z" />
<glyph unicode="k" horiz-adv-x="893" d="M66 4v8q0 58 92.5 447t115.5 491q115 493 156 736.5t51.5 265.5t24.5 22q66 0 66 -68q0 -24 -23.5 -137t-44 -212.5t-67.5 -315t-62 -285.5q84 88 166 88t112.5 -56.5t30.5 -120.5q0 -121 -85 -212t-257 -195q28 -154 129 -269t209 -115q50 0 74 47q11 20 21 49t32 29 q53 0 53 -67q0 -40 -34 -79q-67 -75 -137 -75q-118 0 -208.5 75t-147.5 180t-70 178l-5 -3q-7 -52 -44 -202.5t-43 -180.5q-10 -52 -48 -52q-31 0 -44 11t-13 18zM268 504q10 8 37 24.5t90 59.5t124 113t61 159.5t-62 89.5q-78 0 -134.5 -69.5t-82.5 -211.5q-5 -29 -19 -93z " />
<glyph unicode="l" horiz-adv-x="535" d="M92 125q0 59 6.5 108.5t22.5 137.5t37 198t47 236t53 257t54.5 260t52.5 245.5t46 214t35 164.5q9 32 46 32q43 0 43 -47v-26q-39 -187 -77 -364t-129.5 -614t-118 -591t-26.5 -185t19 -55t44.5 -24t46.5 8.5t41 18t36 18t20 8.5q45 0 45 -45.5t-59.5 -70.5t-136 -25 t-112.5 41t-36 100z" />
<glyph unicode="m" horiz-adv-x="1409" d="M82 0q16 48 28.5 117.5t32.5 128.5q85 339 140 719q3 18 4.5 34t29.5 48q21 8 31 8q28 0 38 -35v-16q-4 -146 -46 -318l-51 -215q22 46 48 106q110 254 205 359.5t206 105.5q61 0 100 -49.5t39 -115.5q0 -10 -1 -17.5t-1 -15.5q111 135 231 184q37 16 74.5 16t71.5 -35.5 t34 -95.5t-13 -129t-32.5 -139t-44 -141.5t-63.5 -198.5t-46 -194.5t-12 -80.5t-18 -30.5t-37 -17.5q-47 0 -47 100q0 63 23 136t37.5 123t39.5 120t62 184t49 244q0 42 -10.5 49.5t-37.5 7.5t-81.5 -35t-110.5 -99q-125 -147 -188 -361q-18 -64 -34 -110t-42.5 -126 t-42 -140.5t-27 -76.5t-37.5 -16q-47 0 -51 51q24 168 72 297t78 205t58 171.5t28 164.5t-43 69q-118 0 -310 -388q-103 -207 -125 -273t-34 -101q-66 -207 -125 -207q-20 0 -34.5 8.5t-14.5 20.5z" />
<glyph unicode="n" horiz-adv-x="913" d="M82 48.5q0 27.5 80.5 472t93 467.5t22.5 29.5t36 6.5t40.5 -20t14.5 -35.5t-4 -30.5q-7 -27 -21 -67q-48 -137 -92 -388l-21 -121q23 48 52 115.5t86 193.5t127 225q90 130 168 130q137 0 137 -221q0 -83 -23.5 -207t-52 -271t-31.5 -243l-12 -55q0 -22 -6.5 -31.5 t-39 -9.5t-47 12t-9.5 43l100 598q18 111 18 169q0 99 -54 99q-72 0 -275 -413q-92 -187 -128.5 -282.5t-54.5 -134.5t-35.5 -59t-39 -20t-25.5 10.5t-4 38z" />
<glyph unicode="o" horiz-adv-x="780" d="M61 266q0 186 62.5 361t170 291t236.5 116q189 0 189 -286q0 -223 -123 -479q-83 -172 -200 -248q-60 -39 -124 -39q-113 0 -162 90t-49 194zM154 281q0 -143 79 -192q24 -15 55 -15q64 0 143 111t133 273.5t54 279t-13.5 147.5t-31 43t-58 12t-88.5 -32 q-93 -60 -165 -205q-108 -216 -108 -422z" />
<glyph unicode="p" horiz-adv-x="856" d="M-88 -799q66 259 106 468t61.5 321t61 321.5t127.5 655.5v45q0 20 18.5 38.5t43 18.5t36 -19t11.5 -36.5t-3 -31.5t-7 -27.5t-8 -26.5t-5 -23l-28 -147q146 280 316 280q89 0 128 -52.5t39 -155.5q0 -189 -54 -385.5t-161.5 -334t-253.5 -137.5q-56 0 -90 24t-55 81 q-51 -232 -96.5 -461.5t-94.5 -415.5q-20 -41 -57 -41q-31 0 -35 41zM238 227q0 -157 116 -157q108 0 198 134q115 172 152 458q11 79 11 152q0 132 -65 132t-151 -95q-120 -133 -190.5 -315t-70.5 -309z" />
<glyph unicode="q" horiz-adv-x="764" d="M61 180q0 173 39 369t122 330q104 165 257 165q89 0 146 -86t57 -206q-3 -20 -20 -50q-5 -119 -159 -846q-25 -118 -52.5 -248t-88.5 -411q-10 -41 -51 -41q-15 0 -28 9.5t-13 22t11.5 69t26.5 135t27.5 143t23.5 119t21.5 106.5t22 105t24.5 114.5t29 135.5t36 168 q-18 -27 -35 -60t-50 -91.5t-82 -103t-119 -44.5t-107.5 58.5t-37.5 137.5zM154 225q0 -141 63 -141q73 0 225 316q102 209 108 275q3 24 6.5 68t16.5 70l7 6q-28 131 -101 131q-147 0 -247 -299q-78 -234 -78 -426z" />
<glyph unicode="r" horiz-adv-x="727" d="M82 4l46 244q36 187 49 265.5t29.5 173t67.5 271.5q-2 5 -2 9v10q0 48 37 69q11 7 23 7q43 0 43 -62q0 -36 -29 -129.5t-45 -173.5q14 23 34.5 58t65 102t112 127.5t138 60.5t107.5 -38q14 -13 14 -33t-18 -36t-37 -16t-37 10.5t-40 10.5t-70 -36q-191 -139 -315 -551 q-33 -110 -40 -151.5t-12 -67.5q-30 -161 -92 -161q-29 0 -29 37z" />
<glyph unicode="s" horiz-adv-x="633" d="M61 142v10q0 21 13 34.5t28 16.5h11q20 0 32.5 -16t23.5 -35.5t24 -35.5t45 -16q68 0 108.5 42.5t40.5 94.5t-15 97q-25 77 -86 192q-102 189 -102 294t53 172t150 67q60 0 103 -25q81 -47 81 -105.5t-49 -58.5q-18 0 -29.5 13.5t-24.5 29.5q-35 43 -81 43 q-100 0 -100 -116q0 -77 36 -159t61 -131q97 -193 97 -295.5t-62 -174.5t-179 -86h-13q-113 0 -164 139q-2 5 -2 9z" />
<glyph unicode="t" horiz-adv-x="647" d="M84 967q0 18 15 37t40 22l148 -4q4 21 8.5 50.5t16 86t32 102.5t53.5 46t33 -37v-13q-29 -124 -49 -233h147q78 0 95.5 -12t17.5 -30q0 -35 -43 -46q-22 -6 -88.5 -6t-144.5 6q-19 -100 -84.5 -374t-65.5 -353.5t18 -104.5q13 -16 44 -16t53 18t40 39.5t35.5 39.5 t38.5 18q41 0 41 -41q0 -21 -41.5 -69.5t-76.5 -74.5t-102 -26t-92 23q-52 46 -52 147q0 52 12 123l19 116q19 86 34 150.5t26 113.5t29 127.5t31 149.5q-85 0 -147 -10q-41 4 -41 35z" />
<glyph unicode="u" d="M82 203q0 281 89 637l31 124q19 68 64 68q26 0 35 -35q-3 -32 -16 -59t-19 -60q-88 -444 -88 -606l-2 -96q0 -82 27 -82q78 0 265 368q29 56 71 141t66 129.5t43 85.5q79 173 136 173q35 0 35 -38.5t-39 -126.5t-64 -180q-72 -257 -89 -537v-11q0 -30 12.5 -44.5 t18.5 -21t6 -27t-23.5 -37.5t-42.5 -17q-61 0 -61 164q0 106 20.5 217t42.5 217q-37 -66 -70 -135.5t-58 -112t-40 -71.5q-129 -246 -239.5 -246t-110.5 219z" />
<glyph unicode="v" horiz-adv-x="700" d="M84 1012q6 20 23.5 34.5t32.5 14.5q29 0 38 -35q22 -201 50 -419t57 -464q149 235 208 370q121 281 121 497.5t-126 264.5q-36 14 -66 18t-41.5 10t-11.5 24q0 44 57 51q285 -22 285 -349.5t-225 -735.5q-74 -133 -169 -258q-31 -41 -55 -41q-51 0 -57 43 q-36 254 -58 463.5t-63 511.5z" />
<glyph unicode="w" horiz-adv-x="1178" d="M84 974.5q0 14.5 16.5 33t34.5 18.5t33.5 -15t23.5 -50.5t25.5 -155t49 -351.5t40.5 -249q34 96 75 201q166 432 196 589q7 39 47 39q23 0 32.5 -12t12.5 -35q47 -477 110 -813q305 490 305 782q0 146 -94 246q-14 15 -37.5 28.5t-46.5 27.5q-57 33 -57 59q0 20 17 36.5 t41 16.5t98 -47t122 -137t48 -214q0 -210 -83.5 -413t-211.5 -395q-16 -24 -32 -55q-63 -123 -116 -123q-47 0 -47 82q0 15 2 30t-4 56q-70 375 -92 565q-30 -68 -121 -315.5t-156 -383.5q-19 -26 -47 -26q-43 0 -43 84q-34 143 -73.5 450t-53.5 369.5t-14 77z" />
<glyph unicode="x" horiz-adv-x="700" d="M-57 18q0 20 19 49t122 194.5t188 291.5q-6 14 -11.5 30.5t-24.5 71.5t-45 128.5t-34.5 99.5t-16.5 51.5t-14.5 44.5t-6.5 31.5t15 28.5t39.5 16t39 -19.5t23.5 -46.5t14.5 -55.5t13.5 -53.5t18 -53t20 -55.5t21 -56t23 -60.5q41 50 124.5 169.5t107 149.5t57.5 50 q15 6 29 6q32 -6 32 -32.5t-10 -45.5q-15 -30 -53.5 -76t-113.5 -156t-128 -173q111 -272 131 -331.5t42 -101t22 -79.5q-3 -22 -21.5 -36.5t-42.5 -14.5t-33 32q-3 34 -20.5 64.5t-35.5 83t-50 127t-64 155.5l-280 -430q-19 -30 -57.5 -30t-38.5 32z" />
<glyph unicode="y" horiz-adv-x="860" d="M-63 -628.5q0 72.5 18 125.5t49 97t73 81.5t90 72.5t99.5 69t102.5 72l100 76q11 44 76 254t76 250q-86 -251 -211 -391q-84 -94 -160 -94t-125 61t-49 172q0 172 98 542q49 184 49 200q-4 29 4 40q29 39 68 39t39 -40q0 -37 -76 -345t-76 -412.5t25.5 -131.5t62.5 -27 q79 0 166 131t149.5 361t85 320.5t39.5 115t50 24.5t33 -24t-89.5 -418.5t-121.5 -540.5q40 35 71 66t55 52t42 21q38 0 38 -34q0 -21 -16 -41q-112 -100 -213 -176q-86 -473 -164 -623q-21 -41 -55 -78q-81 -92 -185 -92t-161 76.5t-57 149zM41 -608q0 -84 55 -130 q23 -18 61.5 -18t71 26t58.5 67t46.5 93t36.5 104t27.5 99.5t20.5 79.5l26 133q-82 -63 -155.5 -113t-128.5 -100q-119 -108 -119 -241z" />
<glyph unicode="z" horiz-adv-x="817" d="M-23 25q0 14 13 34q162 211 368 483.5t297 389.5l-245 10l-138 -10h-34q-93 0 -93 50.5t70 50.5l86 -7l440 -2q52 0 55 -20q1 -7 1 -18.5t-5.5 -22t-12 -18.5t-13 -13.5t-74 -98t-251.5 -335t-281 -375.5q41 0 117 -27.5t139 -27.5q198 0 198 112q0 22 -18 50t-18 45.5 t16 38t39 20.5q38 0 59 -51.5t21 -87.5q0 -101 -71.5 -159.5t-207.5 -58.5q-70 0 -131 22.5t-90.5 33t-59 10.5t-75.5 -27.5t-64 -27.5q-37 0 -37 37z" />
<glyph unicode="{" horiz-adv-x="565" d="M33 -341q0 267 119 710q23 92 38 147l8 34q7 29 9.5 44.5t6 29.5t3.5 18v7q0 13 -9 13l-65 -9q-27 0 -31 7.5t-6 13.5t-8 14q9 41 66 70l46 22t44 39t33.5 71t18 88t5.5 89q0 261 16 409q46 427 301 496q10 2 19 2q43 0 43 -35.5t-48 -54.5q-13 -6 -26 -6h-8 q-70 -14 -108 -78v-2q-57 -99 -68 -308q-5 -91 -8.5 -257t-23 -254.5t-43.5 -140.5t-70 -93q30 -18 30 -81t-61 -270q-129 -432 -129 -697q0 -116 31 -174q6 -11 17.5 -17t21.5 -14l75 21q43 0 43 -27q0 -36 -61.5 -65t-116.5 -29q-104 0 -104 267zM164 674h2h-2zM500 1798 v2v-2z" />
<glyph unicode="|" horiz-adv-x="580" d="M18 -261l2 1q13 99 57.5 298.5t207 1071.5t250.5 1294q11 20 31.5 35t37.5 15q26 0 29 -35q-80 -380 -247.5 -1276.5t-211 -1086t-55.5 -285.5v-7q0 -37 -47 -62q-13 -7 -27 -7q-23 0 -27 29q0 10 2 14h-2v1z" />
<glyph unicode="}" horiz-adv-x="655" d="M-522 -891q0 26 23 47t42.5 21t30.5 -8q105 -103 242 -103q147 0 200 200q46 175 82 403t56 325q-2 -10 -9 -27q6 47 12 102q24 218 107 322q-26 23 -26 90.5t14.5 133.5t23 116.5t32.5 130t51.5 158t55.5 157.5t64.5 212t36.5 280t-55 177q-21 12 -53 12l-89 -5 q-34 4 -34 25q0 76 170 76q163 0 163 -234q0 -175 -69 -405q-30 -100 -64 -199.5t-64 -198.5q-69 -228 -69 -397q0 -11 1 -21.5t1 -21.5q28 10 56 10t28 -32t-44 -56.5t-52 -31.5q-58 -68 -102.5 -433t-77.5 -490q-61 -235 -149.5 -351.5t-229.5 -116.5t-245 68 q-60 39 -60 65z" />
<glyph unicode="~" horiz-adv-x="1239" d="M61 414q13 125 123.5 234.5t237.5 109.5q52 0 94.5 -20t206.5 -116t203.5 -96t66.5 20t49 76q35 97 80 97q35 0 35 -35q0 -14 -8 -29l-82 -149q-39 -73 -129 -78q-94 0 -258 100q-43 26 -107 66.5t-94 49.5t-67 9q-86 0 -169 -67t-87 -158q-3 -25 -22 -41t-38 -16 q-31 0 -35 43z" />
<glyph unicode="&#xa2;" horiz-adv-x="694" d="M61 228q0 161 57.5 339t153 310t207.5 161q47 108 57 142q17 55 66 61q12 0 21.5 -9t9.5 -28q0 -64 -55 -164q52 -12 75 -68q9 -22 15 -40.5t18 -24.5q8 -13 8 -31.5t-17 -34.5t-38 -16q-43 0 -55 63.5t-70 63.5q-84 0 -169 -117.5t-139 -284t-54 -277t52 -164.5 q19 -19 46 -27q20 20 41.5 20t32.5 -24q65 9 111 70q17 22 31.5 39.5t33.5 17.5q39 0 39 -43t-69 -104t-159 -76q-36 -137 -91 -198q-18 -20 -36 -20q-34 0 -34 33q0 27 28.5 84.5t40.5 98.5q-72 15 -115 88.5t-43 159.5z" />
<glyph unicode="&#xa3;" horiz-adv-x="1077" d="M-88 127q0 107 68 198t164 91t221 -58q21 75 34 150t31 156l49 235q-129 43 -176 43t-68.5 -2.5t-35.5 -24.5q-20 -24 -47 -24q-37 0 -37 34q0 58 61 90q43 23 86.5 23t86.5 -9.5t91 -18.5l60 -13q50 254 86.5 384t42.5 157.5t17.5 73.5t26 78.5t26 61t25.5 58.5 q73 164 173 164q77 0 168 -97.5t104 -170.5q-3 -22 -21 -39.5t-40 -17.5t-33 28q-9 61 -78 124t-108 77h-2q-109 -79 -179 -378q-26 -111 -39.5 -170.5t-29.5 -123.5l-51 -233q133 -45 174 -45q77 0 203 84q13 8 30 8q33 0 33 -37q0 -49 -104.5 -100.5t-176 -51.5t-182.5 37 q-11 -52 -20.5 -102.5t-20.5 -95.5t-32.5 -164.5t-47.5 -188.5q57 -31 112.5 -61.5t114 -54.5t115 -52t148 -68t157 -40t119.5 32.5t83 47t61 14.5t32 -31q0 -59 -108 -109t-181.5 -50t-133 17t-118.5 42.5t-117 56t-110.5 54t-104 56t-105.5 62.5q-49 -84 -121 -145 q-142 -119 -220.5 -119t-116.5 51t-38 107zM4 167.5q0 -59.5 42 -95.5q15 -13 38 -13q49 0 125.5 74.5t120.5 140.5q-94 45 -164 45t-116 -46t-46 -105.5z" />
<glyph unicode="&#xa5;" horiz-adv-x="881" d="M98 -41q0 49 72 66q40 9 77.5 17.5t76.5 16.5q18 66 36 116.5t43.5 131.5t28.5 211q-145 -12 -223 -59q-10 -4 -23 -4t-23.5 10t-10.5 33q0 46 83.5 74t200.5 38l6 64q-18 27 -41 90q-174 -5 -198 -29q-20 -12 -35 -12q-37 0 -37 37q0 84 240 100q-93 316 -185 895 q-14 88 -24 162q0 26 15 45.5t38 19.5t38 -12.5t15 -31t-10 -31.5q50 -370 160 -829q34 -144 63 -216h19q21 54 56 121t134 309.5t184.5 407t190.5 264.5q20 16 38 16q38 0 38 -34q0 -22 -17 -41q-141 -137 -284 -471q-39 -93 -101.5 -249t-97.5 -224.5t-47 -102.5 q192 -10 192 -49q0 -19 -14.5 -36t-34.5 -23q-73 6 -180 10q-7 -10 -18 -146q77 0 152 -4t147 -6q34 -9 34 -35q0 -18 -14.5 -35.5t-34.5 -23.5l-295 12q-17 -126 -55 -252.5t-55 -195.5q52 6 102 6q199 0 199 -55q0 -22 -20.5 -39t-45.5 -17q-63 17 -162.5 17t-189 -22.5 t-114 -32t-52.5 -9.5q-37 0 -37 37z" />
<glyph unicode="&#xa8;" horiz-adv-x="1706" d="M334 2254q0 28 7.5 48t20 35t28.5 24t39 9t46 -23v2q33 -39 33 -70.5t-45 -75.5t-72 -44t-42 33.5t-15 61.5zM733 2240.5q0 49.5 27 75.5q49 47 77 47q64 0 64 -63q0 -44 -32 -86.5t-70 -42.5q-7 0 -17 3q-49 17 -49 66.5z" />
<glyph unicode="&#xa9;" horiz-adv-x="1090" d="M158 1405.5q0 174.5 97 298t247.5 192t308.5 70.5q20 0 39 -8t39 -14q22 -15 22 -35.5t-19.5 -38t-43.5 -17.5l-88 13q-129 0 -272 -78q-196 -106 -228 -258q-10 -44 -10 -107.5t27 -130.5t75 -116q101 -103 266.5 -103t314.5 141q90 85 129 197q19 55 19 110t-9 89 t-26.5 60.5t-43.5 53t-60 66.5q-4 10 -4 26.5t16 34t38.5 17.5t77.5 -57.5t73 -98.5q28 -76 28 -150q0 -148 -73.5 -282t-204 -218.5t-293.5 -84.5q-207 0 -324.5 127t-117.5 301.5zM416 1416q0 122 104 224.5t221 102.5q73 0 123 -39q8 -13 8 -31.5t-17 -34.5t-34 -16 t-49 14.5t-59.5 14.5t-65.5 -21t-69 -54q-68 -72 -68 -152t96 -110q35 -10 84 -11q35 -9 35 -35q0 -62 -100 -62t-154.5 73t-54.5 137z" />
<glyph unicode="&#xab;" horiz-adv-x="668" d="M-29 509.5q0 17.5 11 29t34 28.5q129 115 250 258q12 12 21 23t24 25t39.5 14t24.5 -27q-2 -5 -7 -20q-21 -58 -220 -268q-34 -36 -60 -60q39 -29 90 -81.5t80 -74t29 -37.5q0 -45 -51 -45q-29 0 -58 38q-102 131 -154.5 155.5t-52.5 42zM244 522q0 14 21 36 q152 159 229 290q31 33 57 33t31 -17t-10 -42q-116 -194 -191 -261q72 -45 143.5 -136t71.5 -123t-21.5 -53.5t-42.5 -21.5t-32 15q-98 173 -219 252q-37 0 -37 28z" />
<glyph unicode="&#xad;" d="M90 585q0 32 35 49t87 17t130.5 -10t169 -10t205.5 31h12q19 0 28 -9.5t9 -21.5q0 -96 -408 -96q-95 0 -125 14l-57 2l-39 -6q-4 0 -4 2h-6q-37 0 -37 38z" />
<glyph unicode="&#xae;" horiz-adv-x="1085" d="M158 1438q0 128 73 215q182 209 389 281q81 28 141.5 28t91.5 -9t59.5 -23.5t55.5 -31.5t54 -32q22 -15 22 -36.5t-16 -33.5q139 -127 139 -314.5t-185.5 -322.5t-405.5 -135q-75 0 -153 31t-137 87q-128 120 -128 296zM258 1444.5q0 -108.5 99 -217.5t268 -109t305 105 q-23 -6 -51 -6q-71 0 -157 45.5t-130 130.5l4 -121q-3 -25 -22 -41.5t-37 -16.5q-54 0 -54 302q0 137 35 221q23 32 55 32q18 9 26 9h12q14 0 72 -8q189 -26 189 -136q0 -101 -102 -134q-28 -10 -81 -25t-73 -31q133 -133 291 -133h16t17 2q35 -9 35 -35q0 -11 -4 -21 q100 98 100 212t-75 205t-97 147q-79 41 -143 41q-119 0 -232.5 -58t-189.5 -154.5t-76 -205zM573 1513q29 15 64 27.5t86 32.5t51 43q0 41 -47.5 52t-136.5 11q-17 -60 -17 -133v-33z" />
<glyph unicode="&#xb4;" horiz-adv-x="1706" d="M760 2154q0 15 21.5 45t47 75.5t48.5 93t45 94.5t45 92q23 31 51 31q37 0 37 -35q0 -16 -15.5 -45t-37.5 -76.5t-61 -127.5t-89 -144q-3 -20 -18 -35t-28 -15q-46 0 -46 47z" />
<glyph unicode="&#xb8;" horiz-adv-x="1272" d="M381 -504q0 20 17 36.5t40 16.5l15 -2q86 -43 146 -43t105.5 37t45.5 83.5t-30 88.5q-57 82 -116 82q-34 0 -55 -43l-4 2q-24 -26 -43 -26q-37 0 -37 32.5t27 63.5q26 49 49 100t55 94q19 17 41 17q37 0 37 -33q0 -16 -12.5 -35t-40.5 -80q84 -4 154.5 -80t70.5 -159 t-69 -160.5t-195 -77.5q-54 0 -104 16q-97 33 -97 70z" />
<glyph unicode="&#xbb;" horiz-adv-x="676" d="M-100 215q3 22 20.5 40.5t36.5 23.5l31 30q11 10 31.5 32t132.5 106.5t114 95.5q-16 23 -56.5 42.5t-61.5 36.5q-78 63 -78 186q0 57 20 84.5t50 27.5t28 -40.5t-2 -69.5t15 -55t38 -46.5t49.5 -37t64.5 -42t38 -51.5t-20 -51.5t-55 -56.5t-84.5 -69t-87.5 -69.5 t-56.5 -53t-55 -58t-75.5 -42.5q-37 4 -37 37zM221 315q0 15 8 31q61 78 192 149q37 20 73 40q-101 84 -146 207q-13 35 -13 60t16.5 50t49.5 25t33.5 -30t13 -57.5t31.5 -55t66 -80t67.5 -62.5t20.5 -28.5t-19 -37.5q-34 -34 -151.5 -95t-159.5 -118q-24 -24 -53 -24 t-29 26z" />
<glyph unicode="&#x2c6;" horiz-adv-x="1706" d="M494 2103.5q0 32.5 72.5 115t95.5 123.5t41 68q44 64 81 64t37 -39l-2 -25q0 -47 48 -133.5t106 -126.5q8 -13 8 -31.5t-17 -34.5t-40 -16q-43 0 -100 77t-87 163q-8 -12 -14 -24q-29 -58 -158 -201q-18 -12 -35 -12q-36 0 -36 32.5z" />
<glyph unicode="&#x2da;" horiz-adv-x="1362" d="M518 2213q0 39 11.5 74t32.5 64t50 47.5t56 18.5t47 -9q8 7 23 7t26 -9q110 -78 110 -180q0 -65 -46.5 -111.5t-118.5 -46.5q-114 0 -170 77q-21 29 -21 68zM614 2241q0 -36 36.5 -60t68.5 -24q59 0 59 61q0 33 -47 80h-12q-17 0 -32 10t-32 10t-29 -20.5t-12 -56.5z" />
<glyph unicode="&#x2dc;" horiz-adv-x="1706" d="M500 2204q0 10 4 22q70 139 155 139q46 0 111 -38.5t101.5 -56t75 -17.5t38.5 8v12l-10 56q0 26 18 44.5t39 18.5q41 0 41 -97t-85 -132q-32 -13 -75.5 -13t-76 18.5t-62 40t-56.5 40t-50 18.5q-49 0 -84 -74q-20 -24 -47 -24q-37 0 -37 35z" />
<glyph unicode="&#x401;" horiz-adv-x="1145" d="M43 489q0 212 114.5 408.5t295.5 290.5q-160 164 -160 418q0 78 39 154.5t97 127.5q114 99 247 99q257 0 392 -199q44 -64 79 -148q-3 -21 -21.5 -39t-40 -18t-32.5 29q-65 148 -145 213t-224 65t-218.5 -88t-74.5 -206q0 -230 180 -361q8 2 18 2h21q91 0 156 -25 q121 -46 121 -100q0 -46 -51 -70q-14 -6 -43.5 -6t-114 29.5t-141.5 60.5q-152 -45 -273 -231t-121 -382t69 -305q90 -140 300 -140t362.5 127.5t176.5 330.5q23 33 55.5 33t32.5 -49q-91 -375 -385 -492q-105 -41 -235 -41q-240 0 -366 161q-110 139 -110 351zM496 2252 q0 28 7.5 48t20 35t28.5 24t39 9t46 -23v2q33 -39 33 -70.5t-45 -75.5t-72 -44t-42 33.5t-15 61.5zM895 2238.5q0 49.5 27 75.5q49 47 77 47q64 0 64 -63q0 -44 -32 -86.5t-70 -42.5q-7 0 -17 3q-49 17 -49 66.5z" />
<glyph unicode="&#x402;" horiz-adv-x="961" d="M-117 -778q0 18 15.5 36t35.5 23q66 -26 175 -26q399 0 499 524l174 1032q0 50 -11.5 80.5t-44.5 30.5q-109 0 -310 -348q-93 -162 -115 -231t-31.5 -107t-17.5 -78.5t-16 -67t-5.5 -38.5t2.5 -21q0 -47 -75 -47q-11 0 -23 15.5t-12 41.5q25 128 168 777.5t211 1043.5 l-158 4t-170.5 2t-196.5 -6q-43 4 -43 34q0 66 148 66q16 0 440 -8q9 22 38 22t48 -22q9 -1 35.5 -1t120.5 7q400 29 489 29l97 -2q14 0 28 2q35 -9 35 -35q0 -62 -100 -62q-35 0 -248.5 -19t-321 -19t-135.5 8q-11 -53 -26 -127t-33 -160.5t-88.5 -430.5t-118.5 -550 q209 430 395 430q125 0 125 -180q0 -81 -70 -493.5t-90 -566.5q-82 -632 -612 -632q-111 0 -184 40q-23 12 -23 30z" />
<glyph unicode="&#x403;" horiz-adv-x="1004" d="M10 -6q0 10 21 98t52.5 239.5t59.5 296t54 285t73.5 398t96.5 493.5q-9 14 -9 25t1 15.5t1 10.5q-11 -2 -24 -2h-29q-116 0 -121 52q0 57 42 66q14 3 32 5l107 -16h26q29 59 70 59q33 0 33 -49q-2 -4 -2 -10q24 1 38 2.5t25.5 2.5t35.5 4t159 3l258 8q168 0 168 -38 q0 -22 -19 -40t-45 -18q-42 8 -102 8l-271 -16q-98 0 -120.5 4t-41 4t-104.5 -6q-54 -261 -138 -715t-129.5 -690.5t-105.5 -472.5q-5 -20 -23 -29.5t-34 -9.5q-35 0 -35 33zM721 2193q0 13 41.5 129t75.5 185q22 30 51 30q37 0 37 -34q0 -16 -12.5 -38.5t-26.5 -56.5 t-26 -68.5t-23.5 -70t-21.5 -62.5q-18 -46 -56.5 -46t-38.5 32z" />
<glyph unicode="&#x404;" horiz-adv-x="1049" d="M100 945q0 12 24 46t58 66q146 774 584 938q64 22 147 22l156 -6q35 -9 35 -35q0 -18 -14.5 -35.5t-34.5 -23.5l-156 8q-202 0 -365 -203t-245 -602q4 2 31 2q80 0 207 -131t221 -131q123 0 226 132q27 36 58 69q20 16 41 16q35 0 35 -35q0 -24 -64 -96.5t-98 -101.5 q-80 -66 -143 -70l-76 -2q-113 0 -238 117q-81 76 -123 103t-79 34q-10 0 -19 -6q-6 -32 -10.5 -64t-25.5 -158t-21 -254q0 -241 81 -382.5t223 -141.5t249 93q34 29 59 65q21 17 41 17q37 0 37 -33t-53 -86q-146 -146 -281 -146q-185 0 -244 39t-90 80.5t-49 89t-28.5 100 t-23.5 102.5t-13 196t37 362v8q0 3 2 8q-12 -4 -25 -4t-23 11t-10 23z" />
<glyph unicode="&#x405;" horiz-adv-x="1147" d="M-14 379q0 194 116 335q42 51 103 105q20 17 38 17q40 0 40 -33q0 -17 -9 -31q-102 -94 -135 -156q-55 -108 -55 -208t35 -160t93 -100q114 -80 296.5 -80t295.5 144q97 123 97 300.5t-166 563.5t-166 536.5t72 259t221 108.5q239 0 316 -258q8 -13 8 -31.5t-17.5 -34.5 t-35.5 -16q-31 0 -37 38q-14 90 -76 153t-158 63t-145 -67t-49 -158t24.5 -187t61.5 -192t79.5 -192t79.5 -193q86 -225 86 -404.5t-99 -328.5q-127 -195 -400 -195q-209 0 -361.5 104t-152.5 298z" />
<glyph unicode="&#x406;" horiz-adv-x="555" d="M-115 25q0 69 193 69h8q85 456 215 1009t180 771q-15 -1 -25 -1h-54l-87 1q-39 0 -39 38q0 17 19 34.5t45 19.5h175q104 0 230 -2q31 -11 31 -32t-16 -38t-39 -22h-65q-28 0 -78 2q-296 -1190 -404 -1782q189 -5 206 -38q5 -8 5 -21t-17.5 -31.5t-41.5 -21.5 q-56 0 -116.5 9t-93.5 13t-80 4t-99 -16h-11q-21 0 -31 10.5t-10 24.5z" />
<glyph unicode="&#x407;" horiz-adv-x="604" d="M-115 25q0 69 193 69h8q-4 8 -4 21q33 287 116 637t112 484t71 307.5t102 324.5q-62 -4 -157 -4h-11q-39 6 -39 34q0 20 19 38t45 20h10q77 8 150 8t127.5 -3t152.5 -5q31 -11 31 -32.5t-16 -38t-39 -21.5q-30 0 -71 1l-61 1q-21 1 -46 2q-92 -227 -162 -559.5 t-101 -462.5t-74 -322.5t-65 -394.5q-3 -22 -18 -37q227 -6 227 -53q0 -19 -17.5 -37.5t-41.5 -21.5q-56 0 -116.5 9t-93.5 13t-80 4t-99 -16h-11q-21 0 -31 10.5t-10 24.5zM354 2227q0 28 7.5 48t20 35t28.5 24t39 9t46 -23v2q33 -39 33 -71t-45 -75.5t-71.5 -43.5 t-42 33.5t-15.5 61.5zM753 2213.5q0 49.5 27 75.5q49 47 77 47q64 0 64 -63q0 -44 -32 -86.5t-70 -42.5q-7 0 -17 4q-49 16 -49 65.5z" />
<glyph unicode="&#x408;" horiz-adv-x="1044" d="M-133 365.5q0 29.5 16.5 48t30.5 18.5q36 0 42 -27q16 -70 57 -151t104.5 -137t160 -56t177.5 54.5t139 148.5q96 157 168 496q15 74 34.5 166.5t40.5 194t43 206.5t43 203.5t39.5 185.5t32.5 152q-72 -41 -148 -41t-190 30.5t-176 36.5q-28 13 -28 34t17.5 39.5 t39.5 21.5q52 -6 161.5 -36t177 -30t134.5 39q13 8 25.5 8t25.5 -8q11 8 24 8q29 0 38 -35q-60 -224 -124 -559.5t-83 -433.5t-48.5 -252.5t-91.5 -323t-171 -272.5q-131 -121 -335.5 -121t-316.5 238q-59 125 -59 154.5z" />
<glyph unicode="&#x409;" horiz-adv-x="1933" d="M-121 347.5q0 17.5 16 34.5t36 17.5t30.5 -11.5t17.5 -29t12 -36t44 -86.5t101 -132.5q95 -98 200 -98q138 0 282 286q82 165 136.5 323.5t138.5 420.5t160.5 418.5t138 252t139.5 151.5q16 11 43.5 30.5t55.5 30.5q25 66 67 66q31 0 31 -50q-92 -291 -205 -829l-27 -119 q54 33 138 33t160 -41t128 -108q109 -138 109 -324q0 -114 -81 -247q-129 -212 -323 -288q-65 -26 -119 -26q-100 0 -171.5 84t-71.5 206q9 130 84 476q-29 4 -29 29t13 42l45 54l53 229q114 519 164 696q-109 -73 -201 -257l-45 -91q-96 -194 -198 -514q-28 -87 -50.5 -156 t-68 -212.5t-129 -294t-155.5 -232.5q-116 -133 -239 -133q-145 0 -299 189q-95 117 -106 178q-5 24 -15 37.5t-10 31zM1159 291q0 -93 47.5 -152t101.5 -59t106 22q102 43 186 144q133 159 133 301.5t-91 259.5t-218 117q-64 0 -97 -18.5t-59 -47.5q-9 -45 -19 -90.5 t-26 -119.5t-21 -104.5t-24 -95t-19 -157.5z" />
<glyph unicode="&#x40a;" horiz-adv-x="1757" d="M-303 592q0 118 242 266q72 44 129 65.5t111.5 45.5t90 35.5t52.5 17.5q126 523 129 899v16q23 43 59 45q2 0 8 -2h4l2 -2q13 -6 19 -22v-3q0 -3 2 -5v-15q-3 -384 -123 -884q296 75 719 96q120 555 196 790q8 22 26.5 36t35.5 14q31 0 31 -50q-74 -236 -125 -463 t-72 -323l530 16q35 -10 35 -35q0 -18 -14.5 -35.5t-34.5 -23.5q-134 -6 -266.5 -8t-270.5 -8l-14 -68q54 33 138 33t160 -41t128 -108q109 -138 109 -324q0 -114 -81 -247q-129 -212 -323 -288q-65 -26 -119 -26q-101 0 -172 83.5t-71 206.5q9 126 84 476q-29 5 -29 29 t12 42l45 54l41 174q-435 -23 -723 -101q-63 -253 -132.5 -496.5t-129.5 -482.5q-21 -41 -57 -41q-31 0 -35 41q57 232 124 469t130 482q-257 -85 -416 -209q-9 -7 -25 -19q-67 -50 -67 -85l4 -19q0 -23 -16.5 -40.5t-36.5 -17.5q-43 0 -43 60zM1061 291q0 -93 48 -152 t101 -59q152 0 288 162.5t136 304.5t-87 255q-41 54 -99.5 88t-122 34t-97 -18.5t-59.5 -47.5q-18 -89 -39 -186.5t-26 -128t-24 -95t-19 -157.5z" />
<glyph unicode="&#x40b;" horiz-adv-x="958" d="M83 14q0 46 75.5 389.5t101 464t51.5 241.5t50 237q-140 3 -176 13.5t-55 19.5q-13 14 -13 32t18.5 34t40 16t46.5 -7.5t51 -7.5l61 2q15 -1 26 -1h22q56 274 89 472l8 27q9 30 36 30q51 0 65 -51q-25 -127 -54 -264.5t-45 -216.5h17q59 0 199 8q33 -11 33 -35 q0 -45 -54 -59q-42 -12 -170 -12h-45q-24 -113 -69 -329.5t-91 -422.5q209 430 395 430q76 0 113 -59.5t37 -131.5t-26 -201l-34 -172q-56 -283 -56 -338l3 -78q0 -26 -17.5 -42t-46.5 -16t-42.5 20.5t-13.5 39.5t3 34l119 665q6 32 6 74q0 103 -57 103q-108 0 -294 -323 q-105 -183 -129 -253.5t-47 -162t-23 -117.5l2 -35q0 -47 -76 -47q-27 0 -33 24q-1 2 -1 6z" />
<glyph unicode="&#x40c;" horiz-adv-x="1266" d="M20 37q7 72 22.5 138t111 534t264.5 1212q8 22 26 35.5t35 13.5q31 0 31 -37v-12q-88 -454 -219 -1032q193 226 386.5 432.5t308.5 334t226 267.5q20 16 41 16q35 0 35 -34q0 -21 -16 -41q-149 -191 -322 -374t-313.5 -332t-214.5 -251l6 -14q21 -280 158 -536 q96 -180 230 -257q69 -39 142.5 -39t102.5 15q50 25 90 86q20 16 38 16q40 0 40 -37q0 -31 -83 -100q-27 -23 -63.5 -41t-126.5 -18q-172 0 -312 144q-117 119 -192 306.5t-108 380.5q-42 -42 -70 -51h-10q-26 -115 -50.5 -227.5t-44 -202t-34 -151.5t-20.5 -130 q-3 -25 -22 -41t-38 -16q-31 0 -35 43zM248 836h2q0 2 1 3zM799 2086q0 15 21.5 45t47 75.5t48.5 93t45 94.5t45 92q23 31 51 31q37 0 37 -35q0 -16 -15.5 -45t-37.5 -76.5t-61 -127.5t-89 -144q-3 -20 -18 -35t-28 -15q-46 0 -46 47z" />
<glyph unicode="&#x40e;" horiz-adv-x="1241" d="M-182 449v11q0 20 21 42t38 22t33 -10q74 -163 188 -285q143 -153 305 -153q182 8 332 177t207 439q5 22 11 69.5t16 112.5q-234 -204 -389 -204q-220 0 -220 387q0 196 134 715q21 83 43 159q11 20 31.5 34.5t37.5 14.5q27 0 27 -34q-121 -498 -144.5 -651.5t-23.5 -262 t40.5 -188.5t112.5 -80t188.5 79t180.5 165q140 958 356 958q62 0 62 -111.5t-77 -378t-238 -470.5q-6 -40 -12.5 -82t-14.5 -97q-75 -518 -369 -745q-136 -105 -323.5 -105t-332.5 169q-67 79 -125 166.5t-76.5 110.5t-18.5 26zM1118 1194q64 121 95 226q77 262 92 411 q-128 -266 -187 -637z" />
<glyph unicode="&#x40f;" horiz-adv-x="1384" d="M-43 43q0 19 17 35.5t38 21.5h2q13 63 62.5 224t92.5 386t62.5 318t28.5 137.5t20.5 100.5t24.5 121t25.5 131t38.5 198.5t34 214.5q6 13 11 26.5t14.5 30.5t36.5 17q39 0 39 -37v-4l2 2q-63 -262 -142.5 -700t-113 -606.5t-58.5 -253.5t-49.5 -160t-38.5 -154 q137 -10 230 -10l182 -3q0 1 2 1l35 8q16 0 27 -12q96 -4 199.5 -4t125 1.5t32.5 4t16.5 4.5t15.5 4q3 28 5.5 56.5t8.5 56.5l49 231q238 1110 311 1499q22 41 58 41q31 0 35 -41q-45 -213 -141 -692t-149.5 -715.5t-65 -292.5t-13 -86.5t-6.5 -58.5q51 -8 51 -37 q0 -34 -38 -51q-12 -5 -25 -6q-26 4 -41 4l-17 -2q-8 0 -16 4h-19q-19 0 -27 -2l-20 -5q-28 -7 -110 -7h-209q-6 -107 -43.5 -254t-44.5 -181q-23 -41 -58 -41q-30 0 -34 41q5 21 14 53q71 267 74 382q-127 0 -408 18q-23 -39 -52 -39t-38 35v10q-43 7 -43 37z" />
<glyph unicode="&#x410;" horiz-adv-x="1438" d="M-160 47q0 26 18 45t37.5 19t30.5 -17l2 2q214 83 404 336q29 40 47 63t35 48q-155 8 -232 16q-28 11 -28 33t17.5 40t39.5 21q79 -10 266 -18q173 261 443 769q169 318 219 548q8 21 26 35t35 14q26 0 29 -31q16 -16 14.5 -36t-12.5 -31q-23 -81 -32.5 -169.5 t-39 -327.5t-29.5 -402t25 -396q123 -13 133 -27t10 -31t-18.5 -34.5t-40 -16t-37.5 4t-33 4.5v-10q0 -6 3.5 -31t4 -69t4 -78.5t11.5 -71.5t23.5 -106.5t15.5 -91.5t-16.5 -39t-37 -17t-35.5 29.5t-25 75.5t-16.5 103t-11.5 112.5t-8.5 103t-7.5 74.5l-6 28 q-136 14 -275 16t-278 5q-264 -400 -498 -506q-78 -39 -122 -39q-54 0 -54 51zM578 633q120 -2 240.5 -3.5t238.5 -11.5q-17 134 -17 363.5t43 556.5q-121 -251 -268.5 -508.5t-236.5 -396.5z" />
<glyph unicode="&#x411;" horiz-adv-x="1176" d="M-348 336.5q0 71.5 48 71.5q31 0 55 -78.5t65 -114.5q103 -89 284 -123q96 425 191 891h-29q-19 -25 -39 -25q-41 0 -41 41q0 71 129 82q70 353 148 725q-8 13 -8 27.5t4 30.5q-75 -11 -146 -11q-138 0 -141 52q0 55 60 67q16 4 34 6q27 -8 33 -24h25q82 0 165 6 q29 59 70 59q33 0 33 -49v-2q142 13 281 28t222 15q482 0 482 -69q0 -22 -19 -40t-45 -18q-175 31 -345 31t-310 -12.5t-287 -24.5q-42 -198 -81.5 -399t-79.5 -400q281 -18 447.5 -160.5t166.5 -350t-126 -346.5q-163 -180 -466 -228q-89 -14 -148.5 -14t-111.5 6 q-2 -2 -4.5 -15.5t-21 -22.5t-33.5 -9q-35 0 -35 32q0 11 4 23v6q-284 59 -390 208q-40 57 -40 128.5zM195 78q36 -4 97 -4q129 0 277.5 51t254.5 159t106 269q0 274 -299 380q-102 36 -242 46q-131 -647 -194 -901z" />
<glyph unicode="&#x412;" horiz-adv-x="1053" d="M-167 94.5q0 11.5 11.5 25t22 13.5t21.5 -3q14 -5 47 -20.5t106 -15.5l53 223q31 158 69.5 317.5t76.5 323.5l-62 3q-31 0 -31 34q0 49 111 49q45 191 80 415t90 399q-37 -16 -68 -43q-18 -37 -53 -37q-9 0 -22 8.5t-13 32.5q0 47 60 83.5t137 51.5q13 21 31.5 21 t31.5 -17q190 -6 305 -130.5t115 -332.5q0 -170 -125.5 -314t-281.5 -165q174 -11 305 -152.5t131 -293.5q0 -292 -223.5 -439t-605.5 -147l-43 2q-7 -29 -7 -49q-5 -26 -22.5 -43t-33.5 -17q-35 0 -40 41q4 32 14 82l-58 12q-124 25 -128 66q-1 5 -1 16.5zM127 80 q27 -4 80 -4q327 0 503.5 131t176.5 350q0 153 -140 273t-311 120q-44 0 -108 4q-97 -421 -121.5 -536t-31.5 -141.5t-15 -58.5l-17 -68q-9 -36 -16 -70zM348 1047q211 14 357.5 138.5t146.5 308.5t-94.5 278t-245.5 98q-50 -165 -96.5 -446.5t-67.5 -376.5z" />
<glyph unicode="&#x413;" horiz-adv-x="1004" d="M43 -6q0 10 48 211t151.5 770t156.5 829q-8 16 -8 26t1 14.5t1 10.5q-11 -2 -25 -2h-28q-116 0 -121 52q0 57 43 66q13 3 31 5l106 -16h27q27 59 70 59q32 0 32 -49q-2 -4 -2 -10q25 1 39 2.5t25 2.5t35 4t159 3l258 8q168 0 168 -38q0 -22 -18.5 -40t-44.5 -18 q-42 8 -103 8l-270 -16q-99 0 -121.5 4t-40.5 4t-104 -6q-54 -261 -138 -715t-129.5 -690.5t-105.5 -472.5q-5 -20 -23.5 -29.5t-33.5 -9.5q-35 0 -35 33z" />
<glyph unicode="&#x414;" horiz-adv-x="1921" d="M-49 1434q82 169 154 252t137 132q208 159 559 171l6 28q5 20 23.5 34.5t32.5 14.5q29 0 38 -34l-6 -43q322 -9 559 -183q202 -149 307 -370.5t105 -411.5q0 -254 -96 -490q-156 -384 -466 -509q-107 -43 -231 -43t-279 160q-120 122 -172 166t-102 69 q-15 -65 -37.5 -170t-46 -141t-60 -61t-103.5 -25q-115 0 -170.5 71t-55.5 159.5t31.5 144.5t79 89.5t102 47.5t100 14t103.5 -14q142 543 200 820.5t121 585.5q-431 -16 -636 -289q-61 -82 -105 -175q-19 -41 -57 -41q-31 0 -35 41zM137 223q0 -92 67 -127q26 -14 56 -14 t59 16q47 24 62 78l59 230q-36 6 -51 6q-252 0 -252 -189zM541 465q95 -44 207 -149q47 -44 90.5 -86.5t85.5 -77.5q95 -76 184 -76q177 0 329.5 144t239 365.5t86.5 445t-113.5 422t-315 317t-455.5 128.5q-42 -238 -156.5 -691t-181.5 -742z" />
<glyph unicode="&#x415;" horiz-adv-x="1085" d="M-12 488.5q0 211.5 113.5 408t295.5 291.5q-159 163 -159 418q0 78 39 154.5t97 127.5q114 99 247 99q258 0 391 -199q44 -64 80 -148q-4 -21 -22 -39t-39 -18t-34 29q-66 149 -145 213.5t-223 64.5t-218.5 -88t-74.5 -206q0 -230 180 -361q8 2 18 2h21q90 0 155 -25 q121 -46 121 -100q0 -46 -50 -70q-14 -6 -43.5 -6t-114 29.5t-142.5 60.5q-151 -44 -272 -230.5t-121 -382.5q0 -445 369 -445q209 0 361.5 127.5t176.5 330.5q23 33 55.5 33t32.5 -49q-91 -375 -385 -492q-104 -41 -234 -41q-240 0 -366 161q-110 139 -110 350.5z" />
<glyph unicode="&#x416;" horiz-adv-x="2109" d="M-219 129.5q0 17.5 18 33t39.5 15.5t32.5 -16q19 -87 91 -98q23 -3 78.5 -3t141.5 39q238 110 482 423q151 193 239 370q5 6 9.5 11.5t9.5 8.5q-11 20 -18 39t-119 247q-314 640 -314 690q0 18 17 34t38.5 16t32.5 -16q110 -302 210 -508.5t163.5 -330t97.5 -210.5 q116 552 230 1047q8 22 26 35.5t35 13.5q31 0 31 -49q-73 -373 -219 -1032q193 226 386.5 432.5t308.5 334t226 267.5q20 16 41 16q35 0 35 -34q0 -21 -16 -41q-159 -201 -327 -379t-308.5 -327t-214.5 -251l6 -14q21 -278 158 -536q94 -179 229 -257q69 -39 142.5 -39 t112.5 20t81 81q20 16 38 16q40 0 40 -34.5t-81 -102.5q-28 -23 -64.5 -41t-127.5 -18q-173 0 -313 144q-119 121 -192.5 308.5t-106.5 378.5q-42 -42 -70 -51h-10q-63 -277 -88.5 -398t-40 -183t-19.5 -108.5t-23.5 -62.5t-37.5 -16q-31 0 -35 43q6 72 21.5 138t38 178.5 t88.5 422.5q-25 22 -43 55q-135 -236 -215 -345q-168 -233 -334 -354q-207 -150 -430 -150q-85 0 -124.5 22.5t-76.5 97.5q-6 10 -6 27.5z" />
<glyph unicode="&#x417;" horiz-adv-x="1145" d="M-340 657q0 25 17 45.5t38 20.5t35 -23q40 -241 226.5 -434.5t405 -193.5t389.5 124q198 142 198 404q0 316 -197 448q-70 47 -170 56q-150 -94 -237 -94q-26 0 -45 8t-19 42q0 65 80 92q49 16 174 19q401 245 401 508q0 98 -60.5 156.5t-149.5 58.5q-158 0 -275 -98 q-21 -12 -37 -12q-35 0 -35 39t110 104.5t249 65.5t214 -85.5t75 -226.5q0 -232 -225 -419q-65 -54 -132 -101q190 -33 281.5 -176.5t91.5 -370.5q0 -276 -178 -455t-516 -179q-261 0 -452 203.5t-257 473.5z" />
<glyph unicode="&#x418;" horiz-adv-x="1550" d="M-14 33q79 259 166 730q201 1086 226 1147q5 13 5 27q6 20 23.5 35t35.5 15q25 0 35 -35q0 -88 -51 -268q-8 -30 -89 -450.5t-228 -1053.5q151 185 299 357.5t292 346.5q332 401 553 746q16 25 35 63l40 80q61 119 100 177.5t73.5 58.5t34.5 -37q0 -12 -6 -24h2 q-2 -2 -6.5 -14.5t-24 -45t-35.5 -86.5q-63 -160 -122 -307q-205 -511 -205 -946q0 -333 47 -465q86 59 206 232q29 42 64 83q19 17 41 17q37 0 37 -33q0 -18 -8 -31q-24 -28 -50.5 -64t-79.5 -104q-136 -178 -237 -204q-104 19 -107 468q-1 57 -1 196t39.5 337.5 t130.5 423.5l20 55q-309 -455 -871 -1099q-155 -177 -317 -369l-12 -6q-34 0 -44.5 12.5t-10.5 34.5z" />
<glyph unicode="&#x419;" horiz-adv-x="1550" d="M-14 33q79 259 166 730q201 1086 226 1147q5 13 5 27q6 20 23.5 35t35.5 15q25 0 35 -35q0 -88 -51 -268q-8 -30 -89 -450.5t-228 -1053.5q151 185 299 357.5t292 346.5q332 401 553 746q16 25 35 63l40 80q61 119 100 177.5t73.5 58.5t34.5 -37q0 -12 -6 -24h2 q-2 -2 -6.5 -14.5t-24 -45t-35.5 -86.5q-63 -160 -122 -307q-205 -511 -205 -946q0 -333 47 -465q86 59 206 232q29 42 64 83q19 17 41 17q37 0 37 -33q0 -18 -8 -31q-24 -28 -50.5 -64t-79.5 -104q-136 -178 -237 -204q-104 19 -107 468q-1 57 -1 196t39.5 337.5 t130.5 423.5l20 55q-309 -455 -871 -1099q-155 -177 -317 -369l-12 -6q-34 0 -44.5 12.5t-10.5 34.5zM707 2421q0 26 17.5 44.5t39 18.5t30.5 -20.5t22 -110.5q19 -131 126 -131q132 0 240 92q70 58 153 172q19 17 41 17q37 0 37 -33q0 -18 -8 -31q-228 -309 -451 -309 q-116 0 -181.5 81.5t-65.5 209.5z" />
<glyph unicode="&#x41a;" horiz-adv-x="1255" d="M-14 25q92 509 229.5 1100t190.5 825q8 21 26 35t32 14q34 0 34 -37v-12q-50 -257 -110.5 -518.5t-119.5 -522.5q114 129 430 481t502 574q20 16 41 16q35 0 35 -34q0 -21 -16 -41q-154 -184 -465.5 -535t-415.5 -473q28 -287 168 -537q98 -174 235 -248q70 -38 144 -38 t114 15t78 73q20 16 38 16q40 0 40 -36t-61 -89t-113 -62t-120.5 -9t-148.5 39.5t-145 106.5q-119 120 -198.5 311t-112.5 382q-22 -25 -42 -43t-34 -41q-104 -469 -141 -698q-5 -25 -23 -41t-35 -16q-32 0 -36 43z" />
<glyph unicode="&#x41b;" horiz-adv-x="940" d="M-236 35q0 21 17 39t35.5 18t29.5 -8q49 52 125 183t151.5 247t211.5 381q293 571 434 1030q2 3 3.5 7t4.5 7q7 23 29 39.5t39 16.5q25 0 28 -35q-73 -480 -73 -974.5t55 -934.5q0 -43 -42 -65q-12 -6 -24 -6q-24 0 -30 28q-56 454 -56 839.5t29 702.5 q-250 -626 -550 -1135q-163 -276 -283 -411q-26 -27 -65 -27t-54 18.5t-15 39.5z" />
<glyph unicode="&#x41c;" horiz-adv-x="1753" d="M-12 18q65 357 221 1004.5t215 908.5q6 20 23.5 34.5t32.5 14.5q29 0 38 -34q85 -368 171.5 -785t141.5 -651q137 236 254 469t230.5 460t251.5 494q27 49 59.5 49t32.5 -30v-6q-61 -1017 -68 -1870q13 -26 -1 -52q-24 -49 -56 -49q-39 0 -42 69q-1 20 -1 127t5.5 304 t13 395.5t15.5 396t13 390.5q-99 -221 -343.5 -686.5t-328.5 -634.5q-23 -43 -52 -43t-40 29q-52 240 -158 715t-145 669q-67 -340 -212 -938t-179 -750q-20 -41 -57 -41q-31 0 -35 41z" />
<glyph unicode="&#x41d;" horiz-adv-x="1460" d="M-303 592q0 121 242 266q83 49 134.5 68t106 43t93 36.5t49.5 16.5q43 180 66 374t35.5 308.5t27.5 228.5q6 49 59 49q22 0 29.5 -8t5.5 -26q-24 -287 -123 -899q308 79 780 100q67 508 81 565q44 178 48 240q6 20 23.5 34.5t36.5 14.5q25 0 34 -35q-3 -55 -19 -124 l-25 -108q-18 -78 -43 -267.5t-42 -317.5l467 14q35 -9 35 -35q0 -18 -14.5 -35.5t-34.5 -23.5q-116 -5 -232 -7t-235 -5q-18 -146 -53 -322t-66.5 -349.5t-38.5 -352.5q-3 -25 -21.5 -41.5t-37.5 -16.5q-31 0 -35 43q7 185 39 360.5t53 281t39 212.5l29 181 q-475 -19 -793 -105q-62 -251 -132.5 -496t-129.5 -483q-21 -41 -57 -41q-31 0 -35 41q56 230 124 468.5t130 482.5q-262 -87 -416 -209q-8 -6 -23 -17q-69 -51 -69 -84v-4l4 -18q0 -23 -16.5 -40.5t-36.5 -17.5q-43 0 -43 60z" />
<glyph unicode="&#x41e;" horiz-adv-x="1270" d="M61 604q0 439 169 810q183 405 477 405q114 0 215 -82q18 -20 18 -41q0 -49 -33 -49q-8 0 -47 21q-91 50 -185 50q-123 0 -246 -160.5t-199 -412.5t-76 -498q0 -475 176 -575q42 -23 113 -23t149 35q215 99 361 418q92 201 140 428t48 439.5t-79 374.5q-57 114 -148 140 q-46 12 -87.5 20t-70.5 18t-29 30q0 38 51 45q401 0 450 -525q9 -89 9 -192q0 -220 -59.5 -454.5t-169 -433.5t-259 -318t-323.5 -119q-365 0 -365 649z" />
<glyph unicode="&#x41f;" horiz-adv-x="1567" d="M119 33q59 340 141 712l129 585q94 428 97 479.5t10 82.5q-159 3 -316 21q-39 10 -39 35q0 20 19 37.5t45 19.5q248 -25 441.5 -25t290 2t194.5 4t192 4.5t174 4.5q9 6 19 6t18 -4h80q41 0 118 -7.5t148 -13.5q31 -11 31 -32t-17 -38t-39 -22l-240 19h-69 q-80 -269 -145 -588t-81 -396.5t-25.5 -122t-21 -100.5t-24 -121t-52.5 -269t-46 -275q-6 -13 -11 -27q-15 -47 -52 -47t-37 37v4l-2 -2q54 237 98 477t89 479q111 591 218 949l-739 -11h-123q-4 -8 -8 -10q-5 -29 -6.5 -58.5t-6.5 -58.5l-360 -1730q-19 -41 -57 -41 q-31 0 -35 41z" />
<glyph unicode="&#x420;" horiz-adv-x="1096" d="M94 909q0 25 17 37t36 12t37 -5t36 -12t36 -15.5t33 -14.5l205 961q-91 -28 -134 -105q-18 -24 -47 -24q-37 0 -37 35q0 7 5 22q72 137 243 170q22 41 51.5 41t34.5 -31h8q229 0 359.5 -152.5t130.5 -340.5q0 -316 -161 -507q-174 -208 -490 -208q-49 0 -103 14 q-23 -115 -72.5 -344t-78.5 -395q-5 -25 -23 -41t-34 -16q-33 0 -37 43q34 197 86.5 437.5t72.5 338.5q-174 56 -174 100zM375 881q48 -13 145.5 -13t193 46t164.5 124q144 166 144 400q0 182 -116 316t-316 134z" />
<glyph unicode="&#x421;" horiz-adv-x="1098" d="M61 548q0 171 54.5 407.5t156.5 477t244 401.5t302 161t269 -133.5t109 -272.5q-3 -21 -21 -39t-36 -18t-27 12q-13 18 -18 66q-16 127 -91 206.5t-187 79.5t-239 -151q-169 -200 -290 -566.5t-121 -579t72 -355.5q88 -174 254 -174q122 0 280 114q44 32 71 52t44 20 q35 0 35 -37q0 -28 -31 -51q-47 -32 -95 -68q-174 -130 -320 -130q-82 0 -156 42q-157 88 -225 317q-34 115 -34 219z" />
<glyph unicode="&#x422;" horiz-adv-x="1186" d="M160 1896q0 57 104 64q29 2 58 2l419 -8q29 86 78 86q29 0 35 -35l4 -41l-2 -10q57 2 101.5 5t83 5.5t115.5 8t170 5.5h74q13 0 27 2q35 -9 35 -34q0 -62 -100 -62q-130 0 -278 -10t-269 -12q-34 -169 -82.5 -380.5t-144.5 -696.5t-148 -805q-5 -25 -22.5 -41.5 t-33.5 -16.5q-34 0 -38 43q61 506 270 1396q30 130 46 190t21 92t10.5 68.5t11 75t12.5 75.5q-234 6 -322.5 6t-191.5 -6q-43 4 -43 34z" />
<glyph unicode="&#x423;" horiz-adv-x="1241" d="M-182 449v11q0 20 21 42t38 22t33 -10q74 -163 188 -285q143 -153 305 -153q182 8 332 177t207 439q5 22 11 69.5t16 112.5q-234 -204 -389 -204q-220 0 -220 387q0 196 134 715q21 83 43 159q11 20 31.5 34.5t37.5 14.5q27 0 27 -34q-121 -498 -144.5 -651.5t-23.5 -262 t40.5 -188.5t112.5 -80t188.5 79t180.5 165q140 958 356 958q62 0 62 -111.5t-77 -378t-238 -470.5q-6 -40 -12.5 -82t-14.5 -97q-75 -518 -369 -745q-136 -105 -323.5 -105t-332.5 169q-67 79 -125 166.5t-76.5 110.5t-18.5 26zM1118 1194q64 121 95 226q77 262 92 411 q-128 -266 -187 -637z" />
<glyph unicode="&#x424;" horiz-adv-x="2650" d="M61 738q0 212 95.5 436.5t261.5 413.5q166 187 370 296t410 109q86 0 243 -89q47 -26 87 -57q63 274 82 398q-4 7 -4 26t22 37.5t44 18.5q38 0 38 -34q0 -12 -8 -40q0 -142 -66 -406q274 148 518 148q314 0 420 -337q43 -134 43 -307q0 -343 -189.5 -639t-512.5 -489.5 t-711 -247.5l-96 -487q-8 -25 -29.5 -40t-38.5 -15q-26 0 -26 24t96 506q-123 -8 -194 -8q-141 0 -292 56q-431 160 -538 537q-25 86 -25 190zM178 754q0 -290 206 -497.5t579 -207.5q99 0 163 8q83 440 177 883l192 786q-114 93 -261 145q-42 15 -67 15q-314 0 -573 -248 q-228 -218 -345 -531q-71 -191 -71 -353zM1223 68q356 48 654.5 222t474 444.5t175.5 596.5q0 249 -111.5 408t-335 159t-462.5 -147q21 -32 21 -63t-38 -55q-11 -7 -22 -9q-97 -340 -149.5 -593t-106.5 -490.5t-100 -472.5z" />
<glyph unicode="&#x425;" horiz-adv-x="1286" d="M-115 23l2 10q211 268 559 779q90 132 181 263q-56 196 -108.5 388t-112.5 378l-9 39h-2q-28 0 -28 35t26.5 61.5t40.5 26.5h18q4 0 13 -3.5t32.5 -71.5t54.5 -179.5t69 -257.5t81 -307q324 459 550 710q69 76 90 82t35 6t25 -9t11 -24t-27 -49t-162.5 -192t-486.5 -653 q215 -783 346 -1041q0 -29 -20.5 -50t-43.5 -21t-32 14q-2 0 -2 -2q-12 48 -22 95.5t-25 92.5q-125 279 -276 803q-158 -230 -320.5 -466.5t-345.5 -479.5q-17 -27 -46 -27q-65 0 -65 50z" />
<glyph unicode="&#x426;" horiz-adv-x="1268" d="M-25 -932.5q0 131.5 187 222.5q120 60 452 147q41 0 41 -25q0 -37 -47 -63q-45 -18 -101.5 -34.5t-157.5 -46.5t-172 -72q-97 -59 -97 -136t82 -126q125 -75 364 -75q299 0 506 179q139 120 194 305q27 93 27 171q0 273 -131 416q-64 70 -140.5 70t-117.5 -75 q-26 -47 -48 -61t-48 -14q-53 0 -53 182t100 582q-112 -267 -172 -371.5t-105 -160.5q-99 -127 -186 -127q-51 0 -92 38q-113 106 -113 370.5t38.5 522t81 473t49.5 253.5q57 332 120 385q23 16 45 16t27 -22l4 -13q0 -5 -4 -14l-10 -20q-16 -30 -19 -39l-76 -338 q-155 -690 -155 -1186q0 -328 108 -328q98 0 256 279t262 640t128 460q104 431 123 460q30 47 94 47q20 0 20 -34.5t-21 -104t-46.5 -159.5t-51.5 -185t-51.5 -192.5t-117.5 -447.5t-114 -479t-22 -239v-72q0 -14 6 -38q89 114 191.5 114t202.5 -115q141 -162 141 -421 q0 -130 -41.5 -257.5t-109.5 -220.5q-125 -172 -315.5 -250.5t-350.5 -78.5t-270 32t-165 66q-129 79 -129 210.5z" />
<glyph unicode="&#x427;" horiz-adv-x="936" d="M90 846q0 400 162 842q48 131 102 266q31 33 55 33t28.5 -10.5t4.5 -28.5l-2 -11q-130 -328 -172 -486q-82 -310 -82 -591q0 -154 62 -197q24 -16 65 -16t96 34.5t109 97.5q148 171 230 488q17 66 31 127q74 324 122.5 434t57 124t19.5 24.5t35.5 10.5t24.5 -21t-64 -225 q-112 -363 -356 -1557l-24 -123q-19 -85 -78 -129q-19 -14 -38 -14t-40.5 16t-21.5 36.5t22 38.5t45 18q15 64 43 184q127 534 170 752q-75 -196 -187 -299t-202 -103q-217 0 -217 285z" />
<glyph unicode="&#x428;" horiz-adv-x="1702" d="M127 548q0 403 190 1379q10 20 30.5 34.5t35.5 14.5q31 0 31 -34q-187 -966 -187 -1498q0 -364 88 -364q144 0 375 579q181 452 291 920l78 340q9 20 30 34.5t39 14.5q23 0 23 -37q0 -12 -4 -30l-31 -129q-109 -453 -147 -652q-78 -409 -78 -658t62 -345q24 -37 65.5 -37 t83 40.5t80.5 111.5t75.5 168t71 210t67 237t63.5 249.5t60 247.5t75 300t72.5 242t42.5 73t43.5 9t27.5 -35q-160 -523 -297 -1363q-14 -88 -35 -279.5t-39 -284.5q-9 -25 -31 -41t-41 -16q-26 0 -26 31v6q0 3 6 30.5t46.5 274t49.5 352.5q-117 -386 -231 -539 q-93 -124 -187 -124t-148 118t-54 282t20 317t27 204q-83 -326 -189 -556t-215 -319q-58 -46 -110 -46q-90 0 -131 77t-54.5 179.5t-13.5 311.5z" />
<glyph unicode="&#x429;" horiz-adv-x="1964" d="M82 312.5q0 164.5 61 478.5q12 64 31.5 138t54.5 209.5t84.5 342.5t108.5 411q11 20 32 35t35 15q29 0 29 -35q-35 -138 -71.5 -276t-72.5 -276q-192 -748 -192 -1083q0 -249 105 -249q51 0 191 213q68 105 91 135q303 538 407 923q38 141 82 318t75 276q11 20 31.5 34.5 t34.5 14.5q28 0 32 -30v-3q0 -18 -31.5 -172t-74.5 -378q-107 -557 -107 -898.5t92 -433.5q20 -20 49.5 -20t60.5 16.5t60 42.5t57 59.5t53 67.5t47.5 65t41.5 54q121 146 243 469q58 243 108 408t97.5 324t83.5 329q13 26 55 47q4 2 8 2h7q12 0 16 -6t8 -10l2 -10l2 -9 q-99 -473 -169 -704t-121 -363q-47 -190 -86.5 -377.5t-81.5 -377.5q30 6 83.5 6t123 -36.5t122.5 -95.5q117 -128 117 -282.5t-113 -283.5q-151 -174 -421 -229q-80 -17 -138 -17q-344 0 -583 89q-213 83 -216 218q0 32 -1.5 59t21 48.5t42.5 21.5t26.5 -14t8.5 -33.5 t3 -40.5t9 -35q82 -158 453 -204q108 -13 236.5 -13t260 45t223 135t91.5 211t-82.5 219.5t-190.5 143.5q-15 6 -37 6t-110 -23q-37 4 -37 31q13 79 94 446q-91 -160 -227.5 -317.5t-234.5 -157.5q-254 0 -254 525q0 249 49 563q-166 -423 -383 -770q-9 -15 -26 -44 q-160 -278 -304 -278q-82 0 -128 113t-46 277.5z" />
<glyph unicode="&#x42a;" horiz-adv-x="1012" d="M109 1769q0 52 39 71q13 7 30 7l15 -2q111 -74 317 -119l33 -8q157 281 364 281q79 0 133 -48t54 -111q0 -238 -396 -238q-61 0 -131 6q-194 -499 -227 -867q111 94 239 123q35 8 58 8q174 0 255 -98q62 -77 62 -199.5t-68 -260t-188.5 -233t-263.5 -95.5 q-117 0 -169 115.5t-52 292t39 407.5q83 487 240 819q-134 23 -254 76q18 -102 18 -198t-14 -187q-10 -25 -31.5 -41.5t-40.5 -16.5q-29 0 -29 29l11 248v12q0 137 -43 227zM307 382q0 -296 162 -296q151 0 267 147t116 295q0 103 -58 174.5t-152.5 71.5t-184 -53.5 t-135.5 -128.5q-15 -119 -15 -210zM621 1704q51 -17 103 -17t104 14q169 44 169 97q0 70 -71 96q-26 9 -71 9t-110.5 -57.5t-123.5 -141.5z" />
<glyph unicode="&#x42b;" horiz-adv-x="1667" d="M39 225.5q0 70.5 36.5 283t106 521t114 454t50 164.5t34 113.5t28.5 143.5l-2 8q0 50 39 71q12 7 26 7q37 0 37 -44.5t-9 -87.5t-21 -84t-24.5 -77.5t-48 -154t-99.5 -382.5t-91 -406.5t-51.5 -257t-24.5 -236t49.5 -165.5t131.5 -45q148 0 269 98.5t194 247.5t73 262 q0 214 -104 326q-312 24 -312 107q0 40 55 61t117 21q121 0 211 -95q55 -6 115 -6q294 0 463 182q21 84 43 165t35 132.5t28 111t32.5 104t72.5 155.5q9 20 28 34.5t41 14.5t29 -28l4 2l-4 -9q2 -5 2 -10v-52q0 -47 -14 -137q-45 -291 -219 -497q-59 -257 -89 -463 t-45.5 -302.5t-15.5 -224.5t14 -176t57 -48t78 23t89.5 92t91.5 69t37 -25.5t-27 -50.5q-29 -32 -56 -68q-101 -135 -199 -135q-121 0 -162 106q-27 70 -27 193t13 228.5t32 206t40.5 192t37.5 166.5l24 115q-100 -80 -201 -120t-235 -40h-45q67 -130 67 -282.5t-96 -327.5 t-249 -293.5t-310 -118.5q-210 0 -251 152q-13 46 -13 116.5zM1538 1473q32 73 53 174q-41 -128 -53 -174z" />
<glyph unicode="&#x42c;" horiz-adv-x="907" d="M39 276q9 130 84 476q-29 4 -29 36q0 17 12 35l46 54l53 229q22 100 76.5 352t128.5 477q8 22 26 36t35 14q31 0 31 -50q-92 -291 -205 -829l-27 -119q54 33 138 33t160 -41t128 -108q109 -138 109 -324q0 -114 -81 -247q-129 -212 -323 -288q-65 -26 -119 -26 q-100 0 -171.5 84t-71.5 206zM133 291q0 -93 47.5 -152t101.5 -59q102 0 201 78t161.5 188.5t62.5 190t-23 146t-64.5 120t-99.5 87.5t-122 34t-97.5 -18.5t-58.5 -47.5q-9 -45 -19 -90.5t-26 -119.5t-21 -104.5t-24 -95t-19 -157.5z" />
<glyph unicode="&#x42d;" horiz-adv-x="1182" d="M-20 283q0 24 16.5 44.5t37.5 20.5t36 -22q41 -106 137.5 -179t208.5 -73q195 0 366 286q126 213 195 496q-29 -6 -70 -6t-91 18q-81 28 -186 100q-171 119 -261.5 119t-128 -23t-85 -61t-72.5 -38q-36 0 -36 41q0 19 25 41q43 31 75 56.5t79.5 53t115.5 27.5t132.5 -24 t172.5 -98q179 -122 275 -122q38 0 79 25q52 254 52 483q0 325 -108 436q-40 41 -100 41t-128 -34.5t-164 -96.5q-12 -4 -23 -4q-34 0 -34 37q0 20 57 71t141 90.5t151 39.5q206 0 275 -298q29 -125 29 -239q0 -265 -39 -483q27 -4 27 -34.5t-47 -66.5q-83 -359 -283 -682 q-65 -104 -179 -173.5t-198 -69.5q-156 0 -276 82t-174 219z" />
<glyph unicode="&#x42e;" horiz-adv-x="1796" d="M-14 16q28 185 101.5 558t79.5 399.5t13 58.5t41 194.5t61 300.5t49 227.5t70 191.5q13 21 34 35t38 14q23 0 23 -27v-10q0 -6 -11 -27.5t-23.5 -53.5t-21.5 -64.5t-16 -67.5t-50.5 -232.5t-92.5 -443.5q35 9 75 13t74 8.5t86.5 13t106.5 14.5q99 363 321.5 620 t501.5 257q147 0 240 -103q4 -10 4 -21.5t-9 -25.5q82 -103 82 -345q0 -106 -27 -270q-165 -1007 -547 -1208q-81 -42 -187 -42t-190.5 58t-139.5 156q-111 194 -111 492q0 169 37 338q-41 -5 -148.5 -27t-189.5 -24q-104 -503 -174 -916q2 -4 2 -8l-6 -14v-6h-2 q-11 -20 -31 -31.5t-37 -11.5q-26 0 -26 30zM659 741q0 -274 86 -455q97 -204 273 -204q279 0 466 523q109 304 162 701q17 124 17 193.5t-10.5 118t-26.5 80t-34.5 50t-34.5 31.5t-26.5 24.5t-10.5 30t16 34.5q-59 33 -136 33q-150 0 -297 -131t-260 -337 q-184 -336 -184 -692z" />
<glyph unicode="&#x42f;" horiz-adv-x="1038" d="M-2103 -334q0 28 19 49t41 21t32 -8q110 -169 288.5 -275t360 -106t328.5 51t277.5 136.5t247.5 198t224.5 235t208.5 247.5t227.5 265t327.5 302q-118 10 -230 128.5t-112 275.5q0 199 93 399q152 327 440 435q100 38 224 38q260 0 372 -223q4 -10 4 -26.5t-21.5 -36 t-40 -19.5t-28.5 4q-36 65 -72 105l-119 -486q-35 -135 -60.5 -271.5t-53.5 -252.5t-47 -198.5t-37.5 -164.5t-38 -169t-40 -175.5t-45.5 -132t-61 -43.5q-28 5 -28 35l18 99q11 45 20 85l164 717q-64 -46 -114 -73q-157 -124 -262 -222t-216 -227.5t-216.5 -262.5 t-215.5 -258q-258 -291 -484 -430q-294 -180 -630 -180q-215 0 -419.5 113.5t-325.5 292.5v8zM238 1246.5q0 -152.5 77 -260t179 -107.5q75 0 157 39q9 7 27.5 14.5t56.5 34t60 26.5l6 -2q103 447 213 881q-2 5 -2 8v4q3 23 20 37q-76 41 -168 41q-167 0 -310.5 -113 t-229.5 -281.5t-86 -321z" />
<glyph unicode="&#x430;" horiz-adv-x="920" d="M33 147q0 147 109.5 360.5t257.5 369t241.5 155.5t106.5 -82q4 -25 6 -53q9 6 22 6q47 0 47 -45v-8q0 -3 -25 -90t-57 -290t-32 -347q9 -6 21 -13.5t30 -23t18 -36.5t-13 -37.5t-37 -16.5q-49 0 -88.5 50t-39.5 108q0 125 68 430q-85 -178 -220 -343t-186.5 -203 t-111.5 -38q-117 0 -117 147zM135 143q0 -37 31 -37q22 0 37 15q207 178 371 493q93 180 98.5 207t5.5 46t-10 36t-28 17t-53 -19q-77 -42 -189.5 -179t-187.5 -298t-75 -281z" />
<glyph unicode="&#x431;" horiz-adv-x="782" d="M80 207q0 272 96 531q69 185 178 265q56 41 106 41q98 0 134 -38q-25 75 -65 145.5t-79 142.5q-94 177 -94 335.5t91 259t227 100.5q76 0 150 -22t119 -32t108.5 -10t101 6.5t62 15t42 15t41.5 6.5q37 0 37 -31q0 -47 -78.5 -76.5t-163.5 -29.5t-130 10t-131.5 32.5 t-187.5 22.5t-152 -96q-39 -74 -39 -171t25.5 -174t106.5 -213q132 -219 132 -378l-10 -92v-4q0 -251 -121 -508q-81 -173 -194 -247q-58 -38 -124 -38q-188 0 -188 232zM170 293q0 -110 13 -146q26 -71 83 -71t101.5 39t82 101t67.5 140t51 156t32.5 148t11.5 140 t-36.5 104t-90 34t-90.5 -31.5t-86.5 -111t-94 -236t-44.5 -266.5z" />
<glyph unicode="&#x432;" horiz-adv-x="676" d="M59 524q0 11 4 23l41 71q42 308 181 838q93 348 227 484q43 45 82 45q141 0 141 -173q0 -215 -190 -492q-53 -78 -148.5 -214.5t-148.5 -253.5q-9 -21 -29 -31l-6 -39q195 254 358 254q69 0 98 -89q19 -59 19 -131q0 -139 -61 -339t-155 -335q-112 -162 -234 -162 q-64 0 -110 92.5t-46 216t8 200.5q-31 4 -31 35zM174 369q0 -289 84 -289q78 0 154.5 131t127 312.5t50.5 267t-10 108.5t-52 23q-79 0 -180 -110q-67 -73 -162 -226q-12 -117 -12 -217zM262 1038q33 56 73.5 117t112.5 171q187 290 187 448q0 49 -6 75.5t-31 26.5 q-46 0 -107 -122q-123 -243 -229 -716z" />
<glyph unicode="&#x433;" horiz-adv-x="637" d="M59 181q0 72 25 137.5t63.5 129t84.5 125t87 123.5q96 143 109 248q-17 37 -58.5 37t-97.5 -43q-49 -41 -50.5 -61t-19.5 -38t-32 -18q-41 0 -41 38q0 77 91.5 146.5t180.5 69.5q121 0 121 -144q0 -115 -185 -362t-185 -347q0 -77 32.5 -106.5t71.5 -29.5t66 14 q50 25 123.5 98.5t109 73.5t35.5 -34q0 -22 -16 -41q-77 -88 -118 -122q-104 -85 -201.5 -85t-146.5 59.5t-49 131.5z" />
<glyph unicode="&#x434;" horiz-adv-x="778" d="M-94 -605q0 102 47.5 188t124 167.5t172 161t192.5 160.5q10 45 25 108t35 148q-80 -245 -202 -320q-40 -24 -75 -24q-71 0 -117.5 57t-46.5 152q0 175 66 370.5t182 337t254 141.5q70 0 125 -32q12 6 27 6q33 0 33 -33.5t-12 -65.5q-57 -151 -191 -778q37 26 74.5 60 t63 54.5t46.5 20.5q35 0 35 -34q0 -28 -16 -41q-113 -87 -216 -160q-17 -96 -34 -193t-40.5 -214t-58 -220.5t-100 -177.5t-163 -74t-164 66.5t-66.5 168.5zM6 -582.5q0 -112.5 48 -141.5q21 -13 63.5 -13t77 18t66 67.5t62 137t50 180t26 127.5t11.5 64t8.5 54.5t7.5 49.5 q-186 -154 -266 -248q-154 -183 -154 -295.5zM154 227.5q0 -145.5 76 -145.5q64 0 148 122t132 273t79.5 268.5t51.5 188.5q-32 27 -79 27q-91 0 -186 -119t-158.5 -294t-63.5 -320.5z" />
<glyph unicode="&#x435;" horiz-adv-x="664" d="M68 260q0 200 60 377t160 293.5t216 116.5q62 0 97.5 -51.5t35.5 -121.5q0 -131 -68.5 -222t-168.5 -149t-230 -110l-4 -147q0 -172 104 -172q56 0 117.5 32.5t88.5 47t42 14.5q35 0 35 -37q0 -43 -105 -97t-175 -54t-105 23t-57 64q-43 80 -43 193zM186 492q40 22 82 42 t82 42q92 51 142.5 119.5t50.5 174.5q0 80 -67 80q-60 0 -141 -108t-134 -285q-13 -43 -15 -65z" />
<glyph unicode="&#x436;" horiz-adv-x="1272" d="M-96 199q6 20 23.5 34.5t33.5 14.5t24.5 -14.5t23.5 -72.5q23 -87 86 -87q102 0 231 198q37 55 110.5 175.5t91.5 138.5q-19 63 -38 129q-72 243 -164 243q-69 0 -119 -67q-7 -10 -27 -10q-37 0 -37 34q0 52 66 92t122 40q112 0 156 -107q22 -55 62 -182.5t57 -175.5 q46 243 62.5 308.5t21.5 108.5q6 20 23.5 35t36.5 15q24 0 34 -35q0 -42 -12 -80t-28.5 -132t-28.5 -151q162 218 306 325q83 62 132.5 62t92 -51.5t42.5 -88t-16.5 -54t-37.5 -17.5t-33.5 18t-22 39.5t-18 39.5t-21.5 18t-50 -20.5t-137 -123t-143 -153.5q4 -190 59 -361 q41 -123 112 -178q36 -28 78 -28q84 0 177 121q20 16 41 16q37 0 37 -33q0 -54 -86 -127t-155 -73q-119 0 -198 110q-105 146 -145 445q-29 -45 -41 -70v-2q-3 -22 -16 -35q-42 -208 -72 -393q-5 -25 -23 -41t-34 -16q-33 0 -37 43l76 419q-7 11 -11.5 23t-9.5 24 q-45 -65 -86 -131t-85 -129q-103 -147 -214 -225q-42 -31 -85 -31q-78 0 -132.5 72t-54.5 154z" />
<glyph unicode="&#x437;" horiz-adv-x="784" d="M-80 -575q0 170 172 347q121 124 383 314q8 85 8 152t-21 115t-83 50l-29 -20q-145 -102 -219 -102q-29 0 -40 13.5t-11 29t24.5 42t88.5 67.5t159 59q112 98 148 147q75 104 75 215q0 48 -24 71t-88 23t-112.5 -12.5t-120.5 -64.5t-92 -52q-38 0 -38 43q0 20 33.5 52.5 t86.5 61.5q124 66 241.5 66t161 -46.5t43.5 -137.5q0 -204 -191 -377q103 -46 103 -241q0 -26 -5 -84l156 110q13 8 29 8q35 0 35 -36q0 -21 -17 -41q-8 -6 -54.5 -36.5t-158.5 -111.5q-35 -267 -95.5 -477.5t-95.5 -270.5t-64 -87q-60 -54 -137 -54q-134 0 -197 86 q-54 71 -54 179zM8 -557q0 -94 39.5 -144.5t101.5 -50.5t100 45q67 80 151 398q38 140 61 284q-248 -188 -374 -341q-79 -97 -79 -191z" />
<glyph unicode="&#x438;" horiz-adv-x="922" d="M82 187.5q0 57.5 12 137t30.5 157t40.5 151.5t54 182.5t35 167.5q6 20 23.5 34.5t37 14.5t33.5 -53q0 -69 -31 -172t-53 -171q-84 -260 -84 -458q0 -61 48 -86q17 -8 44 -8q57 0 137 115t155.5 277.5t116.5 279.5t61 162q51 110 94 110q34 0 34 -35.5t-33 -145 t-42.5 -152t-22 -108t-24.5 -133.5t-25.5 -145t-32.5 -172q0 -37 12.5 -52.5t18.5 -22.5t6 -27.5t-23.5 -38t-48.5 -17.5t-49 38.5t-24 65.5v35q0 51 35.5 186.5t51.5 196t27 113.5q-25 -51 -54 -117.5t-86 -188.5q-152 -324 -324 -324q-104 0 -140 113q-10 33 -10 90.5z " />
<glyph unicode="&#x439;" horiz-adv-x="993" d="M82 187.5q0 57.5 12 137t30.5 157t40.5 151.5t54 182.5t35 167.5q6 20 23.5 34.5t37 14.5t33.5 -53q0 -69 -31 -172t-53 -171q-84 -260 -84 -458q0 -61 48 -86q17 -8 44 -8q57 0 137 115t155.5 277.5t116.5 279.5t61 162q51 110 94 110q34 0 34 -35.5t-33 -145 t-42.5 -152t-22 -108t-24.5 -133.5t-25.5 -145t-32.5 -172q0 -37 12.5 -52.5t18.5 -22.5t6 -27.5t-23.5 -38t-48.5 -17.5t-49 38.5t-24 65.5v35q0 51 35.5 186.5t51.5 196t27 113.5q-25 -51 -54 -117.5t-86 -188.5q-152 -324 -324 -324q-104 0 -140 113q-10 33 -10 90.5z M336 1479q0 26 18 44.5t39 18.5t30 -20.5t22 -110.5q19 -131 127 -131q130 0 240 92q69 57 153 172q20 17 41 17q36 0 36 -36q0 -14 -8 -28q-99 -135 -177 -195q-148 -114 -269 -114t-186.5 81.5t-65.5 209.5z" />
<glyph unicode="&#x43a;" horiz-adv-x="938" d="M98 23q25 138 71 413t68 376.5t31 176.5q6 20 23.5 34.5t36.5 14.5q25 0 34 -34q0 -42 -8 -75t-21.5 -112.5t-33.5 -182.5q226 318 389 397q37 18 73.5 18t78 -52.5t41.5 -88.5t-17 -53t-38 -17t-33.5 18t-22 39t-18 39t-21.5 18t-57 -25t-137 -125.5t-136 -157.5 q21 -200 81 -345t126 -197q34 -26 69.5 -26t56.5 18t34.5 58.5t25 44.5t23.5 4t27.5 -14t15.5 -53.5t-34 -78.5q-67 -75 -136 -75q-197 0 -306 324q-45 132 -59 230q-20 -33 -44 -77l-25 -46q-41 -218 -63 -374q-4 -25 -22.5 -41t-34.5 -16q-34 0 -38 43z" />
<glyph unicode="&#x43b;" horiz-adv-x="942" d="M-90 157.5q0 16.5 16.5 35t37 18.5t34.5 -23q0 -125 119 -125q92 0 181 92.5t158 231.5t96 230.5t54 178.5t61.5 159.5t71.5 72.5t37 -39q0 -31 -39 -146.5t-70.5 -292t-31.5 -366.5q0 -101 41 -112q10 -2 24.5 -2t28 3t26.5 10.5t29 21t39.5 32.5t41.5 19q38 0 38 -39 t-77.5 -87t-142.5 -48q-132 0 -132 284q0 66 12 152q-74 -190 -203.5 -316.5t-257.5 -126.5q-75 0 -109 27q-53 44 -79 129q-4 10 -4 26.5z" />
<glyph unicode="&#x43c;" horiz-adv-x="1061" d="M-10 34q0 167 368 959q26 37 49 37q48 0 48 -48q0 -22 -13 -58q0 -33 14 -93t27 -162t39 -188q53 58 96 105q215 235 262 314q88 144 138 144q36 0 45 -34q-22 -221 -117 -511t-123 -458q-5 -25 -23 -41t-34 -16q-33 0 -37 43q22 184 90.5 375t116.5 425l-78 -96 q-41 -49 -77 -95q-130 -167 -240 -257q-20 -12 -42.5 -12t-38.5 20.5t-29 65.5t-25.5 116t-30.5 172l-10 45q-175 -402 -224.5 -533.5t-51 -138.5t-4 -20t-7.5 -24q8 -8 8 -24.5t-18.5 -33t-42.5 -16.5q-35 0 -35 38z" />
<glyph unicode="&#x43d;" horiz-adv-x="979" d="M82 29q22 184 99.5 535.5t94.5 416.5q7 20 24 34.5t36 14.5q26 0 35 -35q-2 -48 -37 -213t-45 -235q47 -51 141.5 -51t206.5 94q35 30 65 65q16 69 31 136.5t33 121t41.5 86.5t57.5 33t34 -39v-10q-114 -391 -142 -562t-34 -234t-8 -75.5t-2 -25t8.5 -12.5t16 6t32.5 6 q35 0 35 -36q0 -73 -80 -73q-60 0 -88.5 31.5t-28.5 79.5t25.5 176.5t48.5 247.5q-152 -113 -276 -113q-92 0 -142 50q-7 -35 -14 -83t-20 -136q-38 -244 -111 -244q-33 0 -37 43z" />
<glyph unicode="&#x43e;" horiz-adv-x="780" d="M61 266q0 186 62.5 361t170 291t236.5 116q189 0 189 -286q0 -223 -123 -479q-83 -172 -200 -248q-60 -39 -124 -39q-113 0 -162 90t-49 194zM154 281q0 -143 79 -192q24 -15 55 -15q64 0 143 111t133 273.5t54 279t-13.5 147.5t-31 43t-58 12t-88.5 -32 q-93 -60 -165 -205q-108 -216 -108 -422z" />
<glyph unicode="&#x43f;" horiz-adv-x="913" d="M82 48.5q0 27.5 80.5 472t93 467.5t22.5 29.5t36 6.5t40.5 -20t14.5 -35.5t-4 -30.5q-7 -27 -21 -67q-48 -137 -92 -388l-21 -121q23 48 52 115.5t86 193.5t127 225q90 130 168 130q137 0 137 -221q0 -83 -23.5 -207t-52 -271t-31.5 -243l-12 -55q0 -22 -6.5 -31.5 t-39 -9.5t-47 12t-9.5 43l100 598q18 111 18 169q0 99 -54 99q-72 0 -275 -413q-92 -187 -128.5 -282.5t-54.5 -134.5t-35.5 -59t-39 -20t-25.5 10.5t-4 38z" />
<glyph unicode="&#x440;" horiz-adv-x="856" d="M-88 -799q66 259 106 468t61.5 321t61 321.5t127.5 655.5v45q0 20 18.5 38.5t43 18.5t36 -19t11.5 -36.5t-3 -31.5t-7 -27.5t-8 -26.5t-5 -23l-28 -147q146 280 316 280q89 0 128 -52.5t39 -155.5q0 -189 -54 -385.5t-161.5 -334t-253.5 -137.5q-56 0 -90 24t-55 81 q-51 -232 -96.5 -461.5t-94.5 -415.5q-20 -41 -57 -41q-31 0 -35 41zM238 227q0 -157 116 -157q108 0 198 134q115 172 152 458q11 79 11 152q0 132 -65 132t-151 -95q-120 -133 -190.5 -315t-70.5 -309z" />
<glyph unicode="&#x441;" horiz-adv-x="694" d="M61 224q0 179 66.5 371t175 322t229.5 130q88 0 116 -63q7 -17 16.5 -43.5t21.5 -33.5q8 -13 8 -31.5t-17 -34.5t-38 -16q-43 0 -55 63.5t-67 63.5q-77 0 -159.5 -117t-139 -284t-56.5 -293q0 -182 133 -182q66 0 124 64q22 25 41 45t39 20q40 0 40 -35q0 -64 -82 -129.5 t-185.5 -65.5t-157 76.5t-53.5 172.5z" />
<glyph unicode="&#x442;" horiz-adv-x="709" d="M33 962.5q0 15.5 14 24.5q171 74 430 74q103 0 182 -9.5t121.5 -13.5t51 -15t8.5 -28t-19 -35t-53.5 -18t-116 17.5t-164.5 17.5q-207 0 -378 -57q-5 -2 -9 -2h-8q-25 0 -42 14.5t-17 30zM164 10q0 22 14 39q18 45 38 133t31 129t21 104l22 132q31 181 52 246 q44 131 102 131q21 0 33 -27l27 -70q0 -44 -30 -65q-10 -6 -22.5 -6t-21.5 12q-48 -185 -58 -254q-23 -159 -35.5 -205t-34.5 -132q-54 -208 -103 -208q-35 0 -35 41z" />
<glyph unicode="&#x443;" horiz-adv-x="860" d="M-63 -628q0 126 66 231t179 201q60 51 207 161l100 76q4 18 10.5 47.5t14 62.5t14.5 65.5t13 55.5q-36 -111 -121 -199.5t-165.5 -88.5t-129.5 61t-49 172q0 172 98 542q49 184 49 200l-3 25q-2 13 26 33.5t47 20.5q41 0 41 -40q0 -37 -76 -345t-76 -412.5t25.5 -131.5 t62.5 -27q79 0 166 131t149.5 361t85 320.5t39.5 115t44.5 24.5t34 -12.5t4.5 -22.5q-39 -187 -100.5 -444t-90.5 -428q40 35 71 66t55 52t46 21q35 0 35 -35q0 -21 -16 -41q-85 -76 -213 -176q-101 -536 -185 -698q-47 -92 -133 -143q-46 -27 -104 -27q-107 0 -164 76.5 t-57 149.5zM41 -608q0 -84 55 -130q23 -18 61.5 -18t71 26t58.5 67t46.5 93t36.5 104t27.5 99.5t20.5 79.5l47 209l-35 -31q-71 -60 -141 -117q-248 -200 -248 -382z" />
<glyph unicode="&#x444;" horiz-adv-x="1247" d="M61 338q0 250 99 460q71 150 188 214q59 32 133 32q108 0 150 -126l168 794q10 28 19.5 38.5t34.5 10.5q42 0 42 -55q-5 -18 -24.5 -112t-35 -167t-31.5 -149t-31.5 -149t-27.5 -132.5t-20.5 -99t-9.5 -47.5q120 192 260 192q91 0 151 -110t60 -200q0 -179 -48 -352 t-140 -282q-110 -131 -263 -131q-117 0 -170 107q-138 -626 -184 -873q-5 -20 -21 -34.5t-34 -14.5q-39 0 -39 45v11q0 27 73 332t113 530q-93 -76 -170 -76q-133 0 -195 114q-47 90 -47 230zM158 355q0 -175 81 -241q27 -22 72 -22t98.5 35.5t90.5 97.5q20 113 39 224.5 t41 224.5q-12 131 -24 175q-25 95 -83 95q-142 0 -237 -226q-78 -188 -78 -363zM614 276q29 -219 148 -219q84 0 184 121q98 121 136 389q10 71 10 137t-31 142q-39 96 -103 96q-118 0 -236 -256q-35 -77 -65 -168l-26 -139v-6q0 -49 -17 -97z" />
<glyph unicode="&#x445;" horiz-adv-x="700" d="M-57 18q0 20 19 49t122 194.5t188 291.5q-6 14 -11.5 30.5t-24.5 71.5t-45 128.5t-34.5 99.5t-16.5 51.5t-14.5 44.5t-6.5 31.5t15 28.5t39.5 16t39 -19.5t23.5 -46.5t14.5 -55.5t13.5 -53.5t18 -53t20 -55.5t21 -56t23 -60.5q41 50 124.5 169.5t107 149.5t57.5 50 q15 6 29 6q32 -6 32 -32.5t-10 -45.5q-15 -30 -53.5 -76t-113.5 -156t-128 -173q111 -272 131 -331.5t42 -101t22 -79.5q-3 -22 -21.5 -36.5t-42.5 -14.5t-33 32q-3 34 -20.5 64.5t-35.5 83t-50 127t-64 155.5l-280 -430q-19 -30 -57.5 -30t-38.5 32z" />
<glyph unicode="&#x446;" horiz-adv-x="971" d="M82 164q0 41 15 106.5t28.5 132t38.5 185.5t43 188.5t23.5 109.5t13.5 72q16 70 53 70q45 0 45 -49t-20 -158.5t-78 -356t-58 -292.5q0 -84 72 -84q168 0 469 798q36 95 56 121.5t45 26.5q49 0 49 -43q0 -28 -15 -64q-59 -147 -117 -489q-22 -131 -57 -274 q94 69 132.5 108.5t45.5 46.5t19 7q27 0 35 -35q-4 -238 -83 -430q-125 -303 -329 -303q-148 0 -229 198q-3 8 -3 25t15 36t36 19t35 -22q65 -162 160 -162q172 0 260 314q31 110 33 204q-32 -27 -65.5 -60t-84.5 -80.5t-77 -47.5q-41 0 -41 38q0 11 6 28.5t19 65t27.5 105 t30.5 121t30.5 121t26 103.5t18.5 71q-108 -278 -242 -464.5t-225 -186.5q-68 0 -112 45.5t-44 134.5z" />
<glyph unicode="&#x447;" horiz-adv-x="774" d="M61 662q0 109 65 233.5t128 124.5q30 0 39 -33q0 -100 73 -125q22 -8 46 -8q67 0 120 45q73 141 146 141q37 -6 37 -52.5t-109 -137.5q-34 -68 -61.5 -142t-51.5 -135.5t-58 -174.5t-34 -229t41 -116q50 0 165 157q18 24 30 42t23.5 28.5t33.5 10.5q37 0 37 -33 q0 -16 -8 -31q-103 -134 -150 -180q-92 -88 -147 -88q-115 0 -115 178q0 234 101 479q31 76 67 158q-40 -14 -90 -14q-127 0 -172 108q-61 -90 -61 -182v-10l8 -35q0 -23 -16.5 -40t-36.5 -17q-50 0 -50 78z" />
<glyph unicode="&#x448;" horiz-adv-x="1300" d="M82 128.5q0 38.5 4 75t9.5 68t11.5 58t27 126t33.5 180t28 178.5t31.5 175q7 20 24 34.5t32 14.5q30 0 39 -34q-150 -750 -150 -881q0 -41 29 -41q77 0 181 164q128 202 242 529q29 85 46 152.5t26.5 85t40.5 25.5q41 0 41 -50.5t-37 -168.5q-94 -453 -106 -550.5 t-12 -130.5t6 -44.5t29 -11.5q92 0 333 496q112 230 139.5 312.5t43 113t43.5 30.5t36.5 -10.5t8.5 -38.5q-11 -38 -31 -102.5t-43.5 -143.5t-49.5 -166t-64 -218.5t-51 -183t-14 -51.5t-1 -16q0 -26 31.5 -26t58 25.5t47.5 25.5q39 0 39 -42.5t-58 -73.5t-114 -31 q-94 0 -94 90q0 30 26 119l39 133q13 45 31.5 106.5t29.5 101.5q-177 -327 -270.5 -437.5t-144.5 -110.5t-69.5 30t-18.5 80q0 152 32 357q-109 -210 -172 -298q-122 -169 -198 -169q-103 0 -117 79q-4 27 -4 65.5z" />
<glyph unicode="&#x449;" horiz-adv-x="1360" d="M82 136v50q0 176 108 602q43 166 62 198q39 63 74.5 63t35.5 -27q0 -9 -6 -25l2 -2q0 -13 -9.5 -25t-12.5 -14h-2q-24 -64 -37.5 -122.5t-24.5 -101.5q-94 -363 -94 -553q0 -113 55 -113q131 0 261 337q24 62 47 120.5t43 117.5q33 202 58 271t46 100v2q36 45 70 45 q26 0 26 -35q-22 -115 -61 -225.5t-61 -177.5q-19 -124 -19 -334.5t94 -210.5q186 0 375 626q25 82 55.5 185.5t38.5 103.5q8 21 30.5 37t42 16t24.5 -24q4 0 6 2q-4 -10 -5.5 -34t-33.5 -101q-24 -74 -42 -127q-153 -460 -153 -635v-19q0 -9 2 -18q217 0 217 -190 q0 -212 -261 -286q-97 -28 -197 -28q-254 0 -254 51q0 33 46 57q13 7 25 9q156 -25 224 -25q139 0 229 48t90 145q0 72 -14 92q-26 35 -105 35q-6 -2 -11 -2h-11q-80 0 -80 86q0 49 18 121l-28 -37q-152 -187 -267 -187q-72 0 -113.5 77.5t-41.5 217.5v29l-25 -51 q-65 -133 -106 -181q-86 -102 -181.5 -102t-132.5 93q-16 39 -16 76z" />
<glyph unicode="&#x44a;" horiz-adv-x="903" d="M8 669q0 13 10 31q15 30 62 146q67 166 125 166q19 0 42.5 -24.5t37.5 -37.5q16 -14 39.5 -14t88.5 23t95 55l31 59q22 19 43 19q34 0 34 -34q0 -61 -49 -112q-50 -133 -116 -428q98 137 198.5 137t151.5 -70t51 -165q0 -183 -114 -314t-271 -131q-87 0 -125.5 67 t-38.5 145t11 130q78 389 135 551q-58 -24 -132.5 -24t-123.5 53q-40 -97 -65 -159.5t-30 -74t-21 -21t-31.5 -9.5t-26.5 11.5t-11 24.5zM385 204q0 -58 25.5 -97t71.5 -39q82 0 144.5 55t97 131.5t34.5 149.5q0 147 -96 147q-74 0 -117 -48.5t-73 -104.5 q-58 -106 -72.5 -121t-14.5 -73z" />
<glyph unicode="&#x44b;" horiz-adv-x="1274" d="M72 190q0 238 94 497q36 101 56 168t26 142q6 20 23.5 35t35.5 15q25 0 35 -35q-9 -97 -37.5 -193t-60.5 -193q-80 -250 -80 -403q0 -83 34 -119q14 -14 51 -14t84.5 32.5t82.5 83.5q78 111 78 238q0 31 -7 58q-141 29 -141 94q0 38 37.5 64t68.5 26q63 0 105 -104 q36 -9 84 -9q124 0 222.5 61.5t160.5 164.5q10 28 21 71q43 166 112 166q37 0 37 -51q-37 -127 -94 -227q-131 -377 -131 -580q0 -110 29 -110t52 18.5t44.5 40.5t41.5 40.5t38 18.5q38 0 38 -34q0 -21 -16 -41q-29 -26 -53 -50.5t-61.5 -55t-101 -30.5t-86 41.5 t-22.5 138.5q0 164 82 429q-125 -99 -286 -99q-40 0 -86 4l6 -47q0 -150 -112.5 -297t-252.5 -147q-151 0 -151 192z" />
<glyph unicode="&#x44c;" horiz-adv-x="657" d="M72 209q0 99 25.5 214.5t37.5 176.5l80 389q8 19 27.5 29t33.5 10t28.5 -18.5t14.5 -38.5l-66 -257q-30 -130 -62.5 -267.5t-32.5 -225.5t24.5 -123t79.5 -35q93 0 145.5 62.5t75.5 147.5t23 157q0 176 -86 176q-54 0 -100 -88q-29 -55 -43.5 -71.5t-28.5 -16.5 q-37 0 -37 35q0 21 43.5 87.5t67.5 92.5q54 57 106 57q88 0 128 -82t40 -186q0 -195 -100 -330t-248 -135q-176 0 -176 240z" />
<glyph unicode="&#x44d;" horiz-adv-x="782" d="M8 203q6 20 24.5 34.5t35.5 14.5q26 0 34 -35q2 -65 46 -114.5t93 -49.5q77 0 149 70.5t147 257.5q-45 5 -125 37.5t-113 32.5t-75 -16.5t-65 -32t-39 -15.5q-36 0 -36 47t89 89q47 22 103.5 22t87.5 -11t85.5 -35t97.5 -24h18q37 132 37 239t-26 148t-54.5 41t-52.5 -11 t-48.5 -29t-48.5 -40t-46 -43.5t-40 -41.5q-41 -44 -64 -44q-38 0 -38 42q0 21 60.5 86.5t101.5 92.5q122 86 199 86q149 0 149 -313q0 -88 -18 -176h2q35 0 35 -37q0 -18 -19 -39t-45 -35q-92 -295 -271 -401q-61 -35 -118 -35q-107 0 -178.5 70.5t-73.5 167.5z" />
<glyph unicode="&#x44e;" horiz-adv-x="1227" d="M82 10q0 11 15 59t36 137t38.5 180t33.5 183t26.5 149.5t20.5 149.5t28 134q23 59 63 59t40 -60q-3 -13 -14 -30q-22 -109 -30.5 -163t-29.5 -137t-26 -114q68 25 159 25l131 -4q47 161 172 342q77 108 251 108q50 0 97 -31t56 -92q10 -10 16 -28q-7 -255 -47.5 -400.5 t-92 -243t-132.5 -172.5q-46 -41 -114 -59t-105 -18q-71 0 -108.5 77.5t-37.5 193t23 230.5q-44 2 -102.5 2t-106.5 -10t-56.5 -23t-25.5 -20q-18 -106 -37 -212t-57 -222q-19 -25 -47 -25q-37 0 -37 35zM623 264q0 -196 94 -196q63 0 148.5 85.5t121 177.5t56 196t28.5 311 q-9 9 -14 22q-5 74 -77 74q-129 0 -216 -122q-71 -100 -106 -256.5t-35 -291.5z" />
<glyph unicode="&#x44f;" horiz-adv-x="786" d="M-113 58.5q0 20.5 17.5 37.5t39 17t32.5 -14.5t21.5 -19.5t44 -5t66.5 20.5t68.5 60t77.5 96.5t74.5 99.5t53 67t43.5 52.5t44.5 52.5t30.5 36.5q-104 -96 -178 -96q-47 0 -78 30.5t-31 98.5t59 185.5t150 201.5t172.5 84t125.5 -56q12 -16 23 -34q10 4 23 4q29 0 35 -35 q0 -99 -65 -210q-15 -25 -25 -30q-21 -117 -39 -204.5t-42.5 -208.5t-30 -190t-11.5 -80q-14 -29 -47 -29t-37 15t-4 32q23 218 96 541q-124 -143 -211.5 -266t-125.5 -174.5t-73 -86.5q-71 -71 -155 -71t-129 44q-15 14 -15 34.5zM307 615q0 -83 47 -83q88 0 220 148 q32 36 55 63q24 102 47 152q-29 50 -45.5 59t-40.5 9q-54 0 -123.5 -61.5t-114.5 -147t-45 -139.5z" />
<glyph unicode="&#x451;" horiz-adv-x="694" d="M61 259q0 198 64.5 372.5t170.5 287.5t220.5 113t114.5 -178t-157 -292q-78 -57 -168.5 -99.5t-141.5 -69.5l-10 -147q0 -172 110 -172q57 0 117.5 32.5t88 47t42.5 14.5q35 0 35 -37q0 -43 -105 -97t-175 -54t-105 23t-68 83t-33 173zM180 492q40 22 82 41t81.5 39.5 t75 45.5t61.5 58.5t41.5 77t15.5 113t-39 69.5q-13 0 -21 -4q-111 -48 -187.5 -171.5t-109.5 -268.5zM246 1261q0 30 8 52t22 38t32 25.5t46 9.5t57 -31t29 -68t-49.5 -84.5t-79.5 -47.5t-47.5 38t-17.5 68zM567 1257q0 37 41 77t82 40q66 0 66 -89q0 -34 -36 -79t-73.5 -45 t-65.5 32q-8 9 -8 19q-6 8 -6 45z" />
<glyph unicode="&#x452;" horiz-adv-x="909" d="M-184 -778q0 18 15.5 36t35.5 23q66 -26 175 -26q400 0 499 524l174 1032q0 111 -57 111q-109 0 -295 -323q-106 -183 -128.5 -254t-32 -109t-17.5 -78.5t-14.5 -65t-6.5 -35.5l2 -26q0 -47 -76 -47q-11 0 -23 14.5t-12 34.5v8q30 152 106.5 497.5t174.5 814.5 q-117 3 -151.5 13t-52.5 19q-13 14 -13 32t18.5 34t40 16t46.5 -7.5t51 -7.5l61 2l20 -1q66 325 88 466l9 27q9 30 36 30q52 0 64 -51q-6 -30 -16 -78.5t-22.5 -110.5t-28 -135t-31.5 -151h45q59 0 199 8q33 -11 33 -35q0 -45 -54 -59q-42 -12 -170 -12h-73 q-127 -605 -161 -758q149 325 308 408q43 22 88 22q125 0 125 -180q0 -66 -71 -494t-90 -578q-38 -286 -175 -442q-158 -178 -436 -178q-111 0 -184 40q-23 12 -23 30z" />
<glyph unicode="&#x453;" horiz-adv-x="649" d="M43 181q0 72 25 137.5t63.5 129t84.5 125t87 123.5q96 143 109 248q-18 37 -59 37t-97 -43q-49 -41 -50.5 -61t-20.5 -38t-33 -18q-39 0 -39 38q0 76 90.5 146t181.5 70q121 0 121 -144q0 -117 -185.5 -362t-185.5 -348q0 -135 115 -135q67 0 160 93t128 93t35 -37 q0 -18 -16 -37q-169 -208 -321 -208q-97 0 -145 59.5t-48 131.5zM403 1251q0 8 5 23q21 40 64.5 151t82.5 170q19 17 37 17q41 0 41 -33q0 -16 -11 -34t-25.5 -51t-29 -70t-29.5 -74q-52 -133 -100 -133q-35 0 -35 34z" />
<glyph unicode="&#x454;" horiz-adv-x="659" d="M55 347q0 51 29 155q-16 13 -16 36q0 42 49 66q63 166 168 283t229 117q77 0 131.5 -53.5t71.5 -153.5q-7 -36 -40 -53q-10 -5 -20 -5q-22 0 -34 29q-8 60 -44.5 102.5t-82.5 42.5q-150 0 -267 -282q17 -2 56.5 -18.5t59.5 -16.5t43 13.5t38 13.5q35 0 35 -39 t-48.5 -58.5t-74.5 -19.5t-66.5 16t-74.5 19q-47 -153 -47 -256t12 -132q23 -56 94 -61q44 0 72 14t51 23q35 0 35 -38.5t-62.5 -67.5t-116 -29t-84 19.5t-49 49.5t-28.5 67q-19 74 -19 217z" />
<glyph unicode="&#x455;" horiz-adv-x="571" d="M23 142v10q0 21 12.5 34.5t27.5 16.5h11q20 0 32.5 -16t23.5 -35.5t24 -35.5t44 -16q70 0 110 42.5t40 94.5t-15 97q-25 77 -87 192q-101 189 -101 294.5t53 172t150 66.5q60 0 103 -25q81 -47 81 -105.5t-49 -58.5q-18 0 -29.5 13.5t-24.5 29.5q-35 43 -81 43 q-100 0 -100 -116q0 -77 36 -159t61 -131q97 -193 97 -295.5t-62 -174.5t-179 -86h-13q-114 0 -163 139q-2 5 -2 9z" />
<glyph unicode="&#x456;" horiz-adv-x="438" d="M63 92q0 23 9.5 51.5t20 79t30 137.5t40 180t50 225.5t29.5 143.5v20q0 14 -15 68q0 25 17 45.5t41.5 20.5t40.5 -31t16 -68t-94 -442t-94 -426.5t20 -21.5q13 0 37 25.5t41 25.5q33 0 33 -41.5t-62 -72.5t-90 -31q-70 0 -70 112zM285 1280.5q0 23.5 9 40t23 29 t31.5 19.5t36.5 7t45 -14q12 -16 12 -48q0 -97 -84 -97q-33 0 -53 20t-20 43.5z" />
<glyph unicode="&#x457;" horiz-adv-x="487" d="M68 92q0 23 9 51.5t19.5 79t30 137.5t40 180t50 225.5t29.5 143.5v20q0 14 -15 68q0 25 17 45.5t41.5 20.5t40.5 -31t16 -68t-94 -442t-94 -426.5t20 -21.5q13 0 37 25.5t41 25.5q33 0 33 -41.5t-62 -72.5t-90 -31q-69 0 -69 112zM139 1280.5q0 23.5 9 40t23 29 t31.5 19.5t36.5 7t45 -14q12 -16 12 -60.5t-26 -64.5t-58.5 -20t-52.5 20t-20 43.5zM369 1280.5q0 23.5 9 40t23.5 29t32 19.5t36.5 7t45 -14q12 -16 12 -61t-26 -64.5t-58.5 -19.5t-53 20t-20.5 43.5z" />
<glyph unicode="&#x458;" horiz-adv-x="412" d="M-684 -778q0 18 15.5 36t35.5 23q66 -26 175 -26q399 0 499 524q148 782 207 1214q5 23 22.5 35t34.5 12q35 0 35 -36l-44 -308q-111 -794 -210 -1098q-83 -254 -247 -361q-130 -85 -316 -85q-111 0 -184 40q-23 12 -23 30zM279 1292.5q0 28.5 20 50t57 21.5t56.5 -26 t19.5 -59t-26.5 -51t-55.5 -18t-50 27t-21 55.5z" />
<glyph unicode="&#x459;" horiz-adv-x="1079" d="M-74 110q0 23 17.5 39.5t37 16.5t29.5 -8q52 -47 87 -47t54 20.5t34.5 52t29 70t56.5 138t70.5 184t62 174.5t101 173t175.5 111h12q32 0 37 -28q12 -19 12 -35l-66 -257q-30 -130 -62.5 -267.5t-32.5 -225.5t24.5 -123t79.5 -35q93 0 145 61.5t75.5 146.5t23.5 157 q0 178 -86 178q-54 0 -100 -88q-29 -55 -43.5 -71.5t-28.5 -16.5q-37 0 -37 35q0 21 43.5 87.5t67.5 92.5q54 57 106 57q88 0 128 -82t40 -186q0 -197 -101 -331t-247 -134q-176 0 -176 240q0 99 25.5 214.5t37.5 176.5l64 315q-106 -66 -179.5 -313.5t-165.5 -419.5 t-186 -172q-34 0 -76.5 19.5t-65 38.5t-22.5 42z" />
<glyph unicode="&#x45a;" horiz-adv-x="1217" d="M82 29q22 184 99.5 535.5t94.5 416.5q7 20 24 34.5t36 14.5q26 0 35 -35q-2 -47 -30 -165.5t-40 -194.5q12 -12 20.5 -21t28 -19.5t83.5 -10.5q116 0 183.5 58.5t120.5 166.5l37 180q17 39 62 39q14 0 28.5 -18.5t14.5 -38.5l-35 -129q-19 -72 -49.5 -203.5t-54 -230 t-23.5 -187.5t24.5 -123.5t79.5 -34.5q93 0 146.5 63.5t75.5 147.5t22 155q0 177 -85 177q-55 0 -101 -88q-29 -55 -43.5 -71.5t-28.5 -16.5q-37 0 -37 35q0 21 43.5 87.5t68.5 92.5q53 57 104 57q90 0 129.5 -82t39.5 -186q0 -195 -100 -330t-248 -135q-176 0 -176 240 q0 99 30.5 237t34.5 170l-4 -20q-147 -109 -283 -109q-83 0 -133 50q-8 -42 -16 -98.5t-24 -162.5q-42 -290 -117 -290q-33 0 -37 43z" />
<glyph unicode="&#x45b;" horiz-adv-x="909" d="M-117 1896q0 66 147 66q15 0 435 -8q27 86 78 86q28 0 35 -35l4 -41l-2 -10h23.5t270 18t328.5 18l98 -3q13 0 27 2q35 -9 35 -35q0 -62 -100 -62q-489 0 -723 -30q-34 -205 -99 -463.5t-108 -499.5q168 154 319 154q112 0 125 -173q4 -45 4 -82.5t-3 -74.5t-8 -81.5 t-12 -100t-22.5 -187.5t-24 -229.5t-13.5 -109.5t-18.5 -27t-32.5 -15l-34 17q-6 12 -6 24v11q9 93 44.5 334t35.5 375.5t-17.5 178t-64.5 43.5q-75 0 -185.5 -86t-122.5 -141q-47 -205 -86 -416.5t-44 -254t-24 -58.5t-36 -16q-32 0 -36 43q33 312 174 929 q38 167 98.5 431.5t97.5 474.5q-231 6 -320 6t-194 -6q-43 4 -43 34z" />
<glyph unicode="&#x45c;" horiz-adv-x="868" d="M98 23q25 138 71 413t66 366t33 208q6 20 23.5 34.5t36.5 14.5q25 0 34 -35q0 -42 -8 -85t-14 -81l-41 -231q194 263 351 363q59 38 102.5 38t86.5 -52q42 -53 42 -89t-17 -53t-38 -17t-33.5 18t-22 39.5t-18 39.5t-21.5 18t-52 -22t-135.5 -122t-140.5 -151 q30 -181 135 -415q179 -392 402 -501q61 -30 161.5 -30t167.5 24t115 88q19 17 41 17q37 0 37 -33q0 -64 -105.5 -128.5t-291.5 -64.5q-279 0 -514 392q-160 268 -225 549l-45 -78l-25 -47q-30 -142 -63 -373q-4 -25 -22.5 -41t-34.5 -16q-34 0 -38 43zM535 1232 q0 15 21.5 45t47 75.5t48.5 93t45 94.5t45 92q23 31 51 31q37 0 37 -35q0 -16 -15.5 -45t-37.5 -76.5t-61 -127.5t-89 -144q-3 -20 -18 -35t-28 -15q-46 0 -46 47z" />
<glyph unicode="&#x45e;" horiz-adv-x="860" d="M-63 -628q0 126 66 231t179 201q60 51 207 161l100 76q4 18 10.5 47.5t14 62.5t14.5 65.5t13 55.5q-36 -111 -121 -199.5t-165.5 -88.5t-129.5 61t-49 172q0 172 98 542q49 184 49 200l-3 25q-2 13 26 33.5t47 20.5q42 0 42 -40t-54.5 -239t-83.5 -321.5t-29 -211.5 q0 -144 100 -144q81 0 168 131t149.5 361t85 320.5t39.5 115t44.5 24.5t34 -12.5t4.5 -22.5q-39 -187 -100.5 -444t-90.5 -428q40 35 71 66t55 52t46 21q35 0 35 -35q0 -21 -16 -41q-85 -76 -213 -176q-101 -536 -185 -698q-47 -92 -133 -143q-46 -27 -104 -27 q-107 0 -164 76.5t-57 149.5zM41 -608q0 -84 55 -130q23 -18 61.5 -18t71 26t58.5 67t46.5 93t36.5 104t27.5 99.5t20.5 79.5l47 209l-35 -31q-71 -60 -141 -117q-248 -200 -248 -382zM285 1466q0 26 17.5 45t39 19t30.5 -20.5t22 -110.5q19 -131 126 -131q130 0 240 91 q65 53 153 173q20 16 41 16q37 0 37 -32q0 -18 -8 -31q-228 -309 -451 -309q-116 0 -181.5 81.5t-65.5 208.5z" />
<glyph unicode="&#x45f;" horiz-adv-x="866" d="M39 2q0 88 37.5 346.5t52 341t19.5 160.5t24 125v6h2q19 43 56.5 43t37.5 -68q-3 -19 -16 -32q-8 -45 -10.5 -88t-18.5 -136t-33.5 -233.5t-42.5 -280.5q5 12 5 31q-5 -21 -5 -31v-4l-10 -92q40 10 81 12.5t117.5 15.5t184.5 13q78 443 104 537q62 220 72 295 q7 20 24 34.5t32 14.5q29 0 39 -35q-10 -70 -39 -176.5t-48 -197.5t-43 -221t-49 -261q21 -8 21 -40.5t-37 -47.5q-14 -28 -45 -37q-23 0 -34 10.5t-11 24.5v2l-29 2q-44 0 -100 -4q-4 -91 -29.5 -252t-28.5 -260q-3 -25 -21.5 -41.5t-33.5 -16.5q-39 0 -39 43 q1 94 28 274.5t30 244.5q-94 -10 -158 -29l-4 -8q-2 0 -2 -1t-2 -3q-20 -23 -43 -23q-35 0 -35 43z" />
<glyph unicode="&#x490;" horiz-adv-x="989" d="M43 -6q0 10 21.5 100.5t66 303t137 716t142.5 741.5q-11 -2 -33 -2h-37q-116 0 -121 52q0 57 43 66q13 3 31 5l133 -16q27 59 70 59q32 0 32 -49q-2 -4 -2 -10q200 20 368 20h188q19 0 36 -2q74 206 107 275q23 31 51 31q37 0 37 -35q0 -16 -21 -54t-42 -105.5 t-46 -135.5q19 -19 -6 -43t-51 -27q-42 8 -103 8l-430 -8q-20 0 -106 -6q-54 -261 -138 -715t-129.5 -690.5t-105.5 -472.5q-5 -20 -23.5 -29.5t-33.5 -9.5q-35 0 -35 33z" />
<glyph unicode="&#x491;" horiz-adv-x="547" d="M10 -6q0 10 16 77t34.5 148t31 134.5t19.5 86.5t12.5 59l11 52t28 136t34.5 165t12 63q-113 0 -119 54q0 38 14.5 45t28 7.5t31.5 2.5h63q29 59 70 59q33 0 33 -39v-12q93 6 225 6q9 24 19 55t30 89q55 151 107 151q37 0 37 -35q0 -13 -20 -51.5t-42 -104t-45 -130.5 q4 -10 4 -26t-18.5 -34t-44.5 -16t-31 4q-197 0 -221 4q-5 -2 -10 -2h-11q-66 -318 -88.5 -432t-31 -152t-20 -87t-28 -114t-39.5 -157q-5 -20 -23 -29.5t-34 -9.5q-35 0 -35 33zM328 1026l2 2h-1q-1 0 -1 2v-4z" />
<glyph unicode="&#x2000;" horiz-adv-x="1292" />
<glyph unicode="&#x2001;" horiz-adv-x="2585" />
<glyph unicode="&#x2002;" horiz-adv-x="1292" />
<glyph unicode="&#x2003;" horiz-adv-x="2585" />
<glyph unicode="&#x2004;" horiz-adv-x="861" />
<glyph unicode="&#x2005;" horiz-adv-x="646" />
<glyph unicode="&#x2006;" horiz-adv-x="430" />
<glyph unicode="&#x2007;" horiz-adv-x="430" />
<glyph unicode="&#x2008;" horiz-adv-x="323" />
<glyph unicode="&#x2009;" horiz-adv-x="517" />
<glyph unicode="&#x200a;" horiz-adv-x="143" />
<glyph unicode="&#x2010;" d="M90 585q0 32 35 49t87 17t130.5 -10t169 -10t205.5 31h12q19 0 28 -9.5t9 -21.5q0 -96 -408 -96q-95 0 -125 14l-57 2l-39 -6q-4 0 -4 2h-6q-37 0 -37 38z" />
<glyph unicode="&#x2011;" d="M90 585q0 32 35 49t87 17t130.5 -10t169 -10t205.5 31h12q19 0 28 -9.5t9 -21.5q0 -96 -408 -96q-95 0 -125 14l-57 2l-39 -6q-4 0 -4 2h-6q-37 0 -37 38z" />
<glyph unicode="&#x2012;" d="M90 585q0 32 35 49t87 17t130.5 -10t169 -10t205.5 31h12q19 0 28 -9.5t9 -21.5q0 -96 -408 -96q-95 0 -125 14l-57 2l-39 -6q-4 0 -4 2h-6q-37 0 -37 38z" />
<glyph unicode="&#x2013;" horiz-adv-x="1395" d="M172 652q0 19 17 36t33 17t30 -7q8 1 86 1t160 10q358 39 721 39q34 -9 34 -35q0 -19 -14.5 -36t-34.5 -24q-368 0 -601.5 -26.5t-281.5 -26.5q-147 0 -139 23q-10 10 -10 29z" />
<glyph unicode="&#x2014;" horiz-adv-x="1473" d="M-4 698q0 57 92 62q25 2 117 2t410 -16.5t495 -16.5l164 2q145 0 160 -12q36 0 36 -35q0 -55 -81 -55l-273 6q-171 0 -506 14.5t-508 14.5h-63q-43 4 -43 34z" />
<glyph unicode="&#x2018;" horiz-adv-x="489" d="M295 1960q0 136 137 305q20 16 41 16q37 0 37 -32q0 -18 -8 -31q-84 -103 -99.5 -157t-15.5 -84t4 -52q31 17 64 17t60.5 -19.5t27.5 -55t-47.5 -81t-81.5 -45.5q-60 0 -89.5 69.5t-29.5 149.5z" />
<glyph unicode="&#x2019;" horiz-adv-x="508" d="M295 1866q0 39 42.5 80t88.5 41l55 -11q59 0 76 -137q4 -32 4 -65q0 -81 -45.5 -170t-120.5 -150q-15 -12 -33 -12q-38 0 -38 37q0 22 24 45q63 50 90 103t27 145l-4 30q-39 -30 -69 -30t-64 27q-33 28 -33 67z" />
<glyph unicode="&#x201a;" horiz-adv-x="344" d="M-78 71.5q0 28.5 39 93t92 64.5q31 0 69 -22q83 -49 83 -122t-49.5 -180t-84 -137t-53.5 -30q-41 0 -41 37q0 11 13 35q121 149 121 241q-48 -57 -103 -57t-78 36q-8 13 -8 41.5z" />
<glyph unicode="&#x201c;" horiz-adv-x="813" d="M295 1913q0 112 61 250.5t109 138.5q33 0 33 -49q-7 -17 -59.5 -130t-55.5 -163q51 22 78 22t48 -33t21 -86t-30 -96t-84 -43q-121 0 -121 189zM618 1959q0 136 138 306q20 16 41 16q37 0 37 -32q0 -16 -9 -31q-85 -108 -99.5 -159.5t-14.5 -81.5t4 -52q31 17 64 17 t60 -19.5t27 -55t-47.5 -81t-80.5 -45.5q-61 0 -90.5 69.5t-29.5 148.5z" />
<glyph unicode="&#x201d;" horiz-adv-x="831" d="M295 1873.5q0 46.5 44 85t77.5 38.5t47.5 -9q48 -34 48 -145.5t-25 -201t-66 -155t-82.5 -65.5t-41.5 37q0 20 12 35q74 62 103 195q8 40 10 81q-12 -4 -40 -4t-57.5 31t-29.5 77.5zM618 1853q0 53 43 93.5t89 40.5l55 -11q80 0 80 -224q0 -55 -44.5 -144t-121.5 -154 q-16 -12 -33 -12q-39 0 -39 37q0 23 44 59.5t70.5 88.5t26.5 145l-4 30q-37 -30 -67.5 -30t-64.5 27t-34 54z" />
<glyph unicode="&#x201e;" horiz-adv-x="705" d="M-78 71.5q0 28.5 39 93t92 64.5q31 0 69 -22q83 -49 83 -122t-49.5 -180t-84 -137t-53.5 -30q-41 0 -41 37q0 11 13 35q121 149 121 241q-48 -57 -103 -57t-78 36q-8 13 -8 41.5zM334 126.5q0 41.5 30 70t70 28.5q131 0 131 -178q0 -56 -29.5 -126.5t-47.5 -98.5 q-39 -62 -80 -62q-16 0 -26.5 10t-10.5 27.5t15 41.5t48.5 79t36.5 109q-23 -23 -58.5 -23t-57 40.5t-21.5 82z" />
<glyph unicode="&#x2022;" horiz-adv-x="909" d="M215 760q0 89 77 145t169 56t144 -35q100 -67 100 -164t-102 -192t-212 -95q-128 0 -165 175q-11 58 -11 110z" />
<glyph unicode="&#x202f;" horiz-adv-x="517" />
<glyph unicode="&#x2039;" horiz-adv-x="547" d="M-14 389q0 19 16 39t58.5 53.5t116 87t188.5 140.5l20 14q25 25 57.5 25t32.5 -25q0 -30 -35 -69q-59 -66 -336 -244q38 -31 68.5 -61t81.5 -78.5t113 -82.5q10 -8 10 -24.5t-24.5 -31.5t-46.5 -15q-63 0 -250 183q-70 70 -70 89z" />
<glyph unicode="&#x203a;" horiz-adv-x="360" d="M-100 154q63 136 284 231q-116 151 -125 283q10 42 47 60q12 5 27.5 5t24.5 -22q9 -102 86 -207q1 -4 22.5 -29t24.5 -35q26 -14 26 -39t-27 -48t-113 -59q-152 -64 -185 -140q-28 -41 -66 -41q-15 0 -20.5 9t-5.5 32z" />
<glyph unicode="&#x205f;" horiz-adv-x="646" />
<glyph unicode="&#x20ac;" horiz-adv-x="1049" d="M-47 811q0 72 205 109q22 126 37 196q-131 -20 -168 -59q-21 -13 -35 -13q-37 0 -37 37q0 99 262 129q163 641 549 785q64 22 147 22l156 -6q35 -9 35 -35q0 -18 -14.5 -35.5t-34.5 -23.5l-156 8q-161 0 -301 -133q-187 -179 -287 -571q68 4 181 4t201.5 -10t88.5 -44 q0 -20 -18 -38.5t-41 -18.5l-275 14q-95 0 -159 -4q-25 -117 -35 -190q64 6 115.5 6t144 -7.5t173.5 -26t81 -46.5q0 -22 -18.5 -39.5t-44.5 -17.5q-22 4 -295 45h-41q-80 0 -131 -8q-27 -187 -27 -306q0 -231 81 -372.5t223 -141.5t249 93q34 29 59 65q21 17 41 17 q37 0 37 -33t-53 -86q-146 -146 -281 -146q-185 0 -244 39t-90 80.5t-49 89t-28.5 100t-23.5 102.5t-13 180.5t24 301.5q-71 -17 -108.5 -32t-48.5 -15q-33 0 -33 35z" />
<glyph unicode="&#xe000;" horiz-adv-x="1055" d="M0 0v1055h1055v-1055h-1055z" />
</font>
</defs>
</svg>
